<mxfile host="app.diagrams.net" modified="2023-10-27T14:03:28.380Z" agent="Mozilla/5.0 (X11; Linux x86_64) AppleWebKit/537.36 (KHTML, like Gecko) Chrome/118.0.0.0 Safari/537.36" etag="9EZsIg7lOWHlgSQ4Gkcc" version="22.0.8" type="device">
  <diagram name="Page-1" id="Y-YIVELfno_N2UpYb1xn">
    <mxGraphModel dx="2261" dy="786" grid="1" gridSize="10" guides="1" tooltips="1" connect="1" arrows="1" fold="1" page="1" pageScale="1" pageWidth="827" pageHeight="1169" math="0" shadow="0">
      <root>
        <mxCell id="0" />
        <mxCell id="1" parent="0" />
        <mxCell id="9iOiu2AejandBRwTWpK1-23" value="&lt;u&gt;id&lt;/u&gt;" style="ellipse;whiteSpace=wrap;html=1;" vertex="1" parent="1">
          <mxGeometry x="-160" y="612.5" width="70" height="40" as="geometry" />
        </mxCell>
        <mxCell id="9iOiu2AejandBRwTWpK1-29" value="name" style="ellipse;whiteSpace=wrap;html=1;" vertex="1" parent="1">
          <mxGeometry x="-130" y="632.5" width="70" height="40" as="geometry" />
        </mxCell>
        <UserObject label="" plantUmlData="{&quot;data&quot;:&quot;@startuml HealthcareSystemERDiagram\n\n!define EntityCircle class\n\nEntityCircle Speciality {\n  + name: String\n  + slug: String\n  + image: Image\n  + description: Text\n}\n\nEntityCircle Doctor {\n  + name: String\n  + image: Image\n  + degree: String\n  + experience: Integer\n  + chamber: String\n  + fee: Integer\n  + followup_fee: Integer\n  + bmdc: String\n  + description: Text\n  + zoom_link: URL\n  + rating: Float\n}\n\nEntityCircle DoctorSchedule {\n  + day_of_week: String\n  + start_time: Time\n  + end_time: Time\n}\n\nEntityCircle Profile {\n  + image: Image\n  + phone: String\n  + address: String\n  + city: String\n}\n\nEntityCircle Appointment {\n  + date: Date\n  + time: Time\n  + status: String\n  + problem: Text\n  + fees: Integer\n  + due: Integer\n}\n\nEntityCircle Payment {\n  + method: String\n  + transaction_id: String\n  + amount: Integer\n}\n\nEntityCircle Consultation {\n  + date: Date\n  + time: Text\n  + status: String\n  + problem: Text\n  + prescription: Text\n}\n\nEntityCircle Review {\n  + comment: Text\n  + rating: Integer\n}\n\nSpeciality --o{ Doctor\nDoctorSchedule --o{ Doctor\nProfile --o{ User\nAppointment --o{ Doctor\nPayment --o{ Appointment\nConsultation --o{ Doctor\nReview --o{ Doctor\n\n@enduml\n&quot;,&quot;format&quot;:&quot;svg&quot;}" id="9iOiu2AejandBRwTWpK1-1">
          <mxCell style="shape=image;noLabel=1;verticalAlign=top;aspect=fixed;imageAspect=0;image=data:image/svg+xml,PD94bWwgdmVyc2lvbj0iMS4wIiBlbmNvZGluZz0idXMtYXNjaWkiIHN0YW5kYWxvbmU9Im5vIj8+PHN2ZyB4bWxucz0iaHR0cDovL3d3dy53My5vcmcvMjAwMC9zdmciIHhtbG5zOnhsaW5rPSJodHRwOi8vd3d3LnczLm9yZy8xOTk5L3hsaW5rIiBjb250ZW50U3R5bGVUeXBlPSJ0ZXh0L2NzcyIgaGVpZ2h0PSI1OTJweCIgcHJlc2VydmVBc3BlY3RSYXRpbz0ibm9uZSIgc3R5bGU9IndpZHRoOjk5OHB4O2hlaWdodDo1OTJweDtiYWNrZ3JvdW5kOiNGRkZGRkY7IiB2ZXJzaW9uPSIxLjEiIHZpZXdCb3g9IjAgMCA5OTggNTkyIiB3aWR0aD0iOTk4cHgiIHpvb21BbmRQYW49Im1hZ25pZnkiPjxkZWZzLz48Zz48IS0tY2xhc3MgU3BlY2lhbGl0eS0tPjxnIGlkPSJlbGVtX1NwZWNpYWxpdHkiPjxyZWN0IGNvZGVMaW5lPSIzIiBmaWxsPSIjRjFGMUYxIiBoZWlnaHQ9IjEwNy45Mzc1IiBpZD0iU3BlY2lhbGl0eSIgcng9IjIuNSIgcnk9IjIuNSIgc3R5bGU9InN0cm9rZTojMTgxODE4O3N0cm9rZS13aWR0aDowLjU7IiB3aWR0aD0iMTQ1IiB4PSI3IiB5PSIxOTAiLz48ZWxsaXBzZSBjeD0iNDEuMzUiIGN5PSIyMDYiIGZpbGw9IiNBREQxQjIiIHJ4PSIxMSIgcnk9IjExIiBzdHlsZT0ic3Ryb2tlOiMxODE4MTg7c3Ryb2tlLXdpZHRoOjEuMDsiLz48cGF0aCBkPSJNMzguOTc1LDIxMC4yNSBMMzguOTc1LDIxMiBMNDMuOTEyNSwyMTIgTDQzLjkxMjUsMjEwLjI1IEwzOC45NzUsMjEwLjI1IFogTTM5LjY2MjUsMjEwLjkzNzUgUTM5LjY2MjUsMjEwLjkzNzUgMzkuNjYyNSwyMDEuNzUgTDM3LjkxMjUsMjAxLjc1IFEzNy45MTI1LDIwMS43NSAzNy45MTI1LDIxMC45Mzc1IEwzOS42NjI1LDIxMC45Mzc1IFogTTQzLjIyNSwyMTAuOTM3NSBMNDQuOTc1LDIxMC45Mzc1IFE0NC45NzUsMjEwLjkzNzUgNDQuOTc1LDIwOC4xMjUgTDQzLjIyNSwyMDguMTI1IFE0My4yMjUsMjA4LjEyNSA0My4yMjUsMjEwLjkzNzUgWiBNNDMuMjI1LDIwMS43NSBRNDMuMjI1LDIwMS43NSA0My4yMjUsMjA0LjU2MjUgTDQ0Ljk3NSwyMDQuNTYyNSBRNDQuOTc1LDIwNC41NjI1IDQ0Ljk3NSwyMDEuNzUgTDQzLjIyNSwyMDEuNzUgWiBNMzguOTc1LDIwMi40Mzc1IEw0My45MTI1LDIwMi40Mzc1IEw0My45MTI1LDIwMC42ODc1IEwzOC45NzUsMjAwLjY4NzUgTDM4Ljk3NSwyMDIuNDM3NSBaICIgZmlsbD0iIzAwMDAwMCIvPjx0ZXh0IGZpbGw9IiMwMDAwMDAiIGZvbnQtZmFtaWx5PSJzYW5zLXNlcmlmIiBmb250LXNpemU9IjE0IiBsZW5ndGhBZGp1c3Q9InNwYWNpbmciIHRleHRMZW5ndGg9IjcwIiB4PSI1OS42NSIgeT0iMjExLjc0MjIiPlNwZWNpYWxpdHk8L3RleHQ+PGxpbmUgc3R5bGU9InN0cm9rZTojMTgxODE4O3N0cm9rZS13aWR0aDowLjU7IiB4MT0iOCIgeDI9IjE1MSIgeTE9IjIyMiIgeTI9IjIyMiIvPjxlbGxpcHNlIGN4PSIxOCIgY3k9IjIzNC45OTIyIiBmaWxsPSJub25lIiByeD0iMyIgcnk9IjMiIHN0eWxlPSJzdHJva2U6IzAzODA0ODtzdHJva2Utd2lkdGg6MS4wOyIvPjx0ZXh0IGZpbGw9IiMwMDAwMDAiIGZvbnQtZmFtaWx5PSJzYW5zLXNlcmlmIiBmb250LXNpemU9IjE0IiBsZW5ndGhBZGp1c3Q9InNwYWNpbmciIHRleHRMZW5ndGg9Ijg1IiB4PSIyNyIgeT0iMjM5LjIzNDQiPm5hbWU6IFN0cmluZzwvdGV4dD48ZWxsaXBzZSBjeD0iMTgiIGN5PSIyNDkuOTc2NiIgZmlsbD0ibm9uZSIgcng9IjMiIHJ5PSIzIiBzdHlsZT0ic3Ryb2tlOiMwMzgwNDg7c3Ryb2tlLXdpZHRoOjEuMDsiLz48dGV4dCBmaWxsPSIjMDAwMDAwIiBmb250LWZhbWlseT0ic2Fucy1zZXJpZiIgZm9udC1zaXplPSIxNCIgbGVuZ3RoQWRqdXN0PSJzcGFjaW5nIiB0ZXh0TGVuZ3RoPSI4NCIgeD0iMjciIHk9IjI1NC4yMTg4Ij5zbHVnOiBTdHJpbmc8L3RleHQ+PGVsbGlwc2UgY3g9IjE4IiBjeT0iMjY0Ljk2MDkiIGZpbGw9Im5vbmUiIHJ4PSIzIiByeT0iMyIgc3R5bGU9InN0cm9rZTojMDM4MDQ4O3N0cm9rZS13aWR0aDoxLjA7Ii8+PHRleHQgZmlsbD0iIzAwMDAwMCIgZm9udC1mYW1pbHk9InNhbnMtc2VyaWYiIGZvbnQtc2l6ZT0iMTQiIGxlbmd0aEFkanVzdD0ic3BhY2luZyIgdGV4dExlbmd0aD0iODYiIHg9IjI3IiB5PSIyNjkuMjAzMSI+aW1hZ2U6IEltYWdlPC90ZXh0PjxlbGxpcHNlIGN4PSIxOCIgY3k9IjI3OS45NDUzIiBmaWxsPSJub25lIiByeD0iMyIgcnk9IjMiIHN0eWxlPSJzdHJva2U6IzAzODA0ODtzdHJva2Utd2lkdGg6MS4wOyIvPjx0ZXh0IGZpbGw9IiMwMDAwMDAiIGZvbnQtZmFtaWx5PSJzYW5zLXNlcmlmIiBmb250LXNpemU9IjE0IiBsZW5ndGhBZGp1c3Q9InNwYWNpbmciIHRleHRMZW5ndGg9IjExOSIgeD0iMjciIHk9IjI4NC4xODc1Ij5kZXNjcmlwdGlvbjogVGV4dDwvdGV4dD48bGluZSBzdHlsZT0ic3Ryb2tlOiMxODE4MTg7c3Ryb2tlLXdpZHRoOjAuNTsiIHgxPSI4IiB4Mj0iMTUxIiB5MT0iMjg5LjkzNzUiIHkyPSIyODkuOTM3NSIvPjwvZz48IS0tY2xhc3MgRG9jdG9yLS0+PGcgaWQ9ImVsZW1fRG9jdG9yIj48cmVjdCBjb2RlTGluZT0iMTAiIGZpbGw9IiNGMUYxRjEiIGhlaWdodD0iMjEyLjgyODEiIGlkPSJEb2N0b3IiIHJ4PSIyLjUiIHJ5PSIyLjUiIHN0eWxlPSJzdHJva2U6IzE4MTgxODtzdHJva2Utd2lkdGg6MC41OyIgd2lkdGg9IjE3NCIgeD0iMzU3LjUiIHk9IjM3MyIvPjxlbGxpcHNlIGN4PSI0MTkuMjUiIGN5PSIzODkiIGZpbGw9IiNBREQxQjIiIHJ4PSIxMSIgcnk9IjExIiBzdHlsZT0ic3Ryb2tlOiMxODE4MTg7c3Ryb2tlLXdpZHRoOjEuMDsiLz48cGF0aCBkPSJNNDE2Ljg3NSwzOTMuMjUgTDQxNi44NzUsMzk1IEw0MjEuODEyNSwzOTUgTDQyMS44MTI1LDM5My4yNSBMNDE2Ljg3NSwzOTMuMjUgWiBNNDE3LjU2MjUsMzkzLjkzNzUgUTQxNy41NjI1LDM5My45Mzc1IDQxNy41NjI1LDM4NC43NSBMNDE1LjgxMjUsMzg0Ljc1IFE0MTUuODEyNSwzODQuNzUgNDE1LjgxMjUsMzkzLjkzNzUgTDQxNy41NjI1LDM5My45Mzc1IFogTTQyMS4xMjUsMzkzLjkzNzUgTDQyMi44NzUsMzkzLjkzNzUgUTQyMi44NzUsMzkzLjkzNzUgNDIyLjg3NSwzOTEuMTI1IEw0MjEuMTI1LDM5MS4xMjUgUTQyMS4xMjUsMzkxLjEyNSA0MjEuMTI1LDM5My45Mzc1IFogTTQyMS4xMjUsMzg0Ljc1IFE0MjEuMTI1LDM4NC43NSA0MjEuMTI1LDM4Ny41NjI1IEw0MjIuODc1LDM4Ny41NjI1IFE0MjIuODc1LDM4Ny41NjI1IDQyMi44NzUsMzg0Ljc1IEw0MjEuMTI1LDM4NC43NSBaIE00MTYuODc1LDM4NS40Mzc1IEw0MjEuODEyNSwzODUuNDM3NSBMNDIxLjgxMjUsMzgzLjY4NzUgTDQxNi44NzUsMzgzLjY4NzUgTDQxNi44NzUsMzg1LjQzNzUgWiAiIGZpbGw9IiMwMDAwMDAiLz48dGV4dCBmaWxsPSIjMDAwMDAwIiBmb250LWZhbWlseT0ic2Fucy1zZXJpZiIgZm9udC1zaXplPSIxNCIgbGVuZ3RoQWRqdXN0PSJzcGFjaW5nIiB0ZXh0TGVuZ3RoPSI0MiIgeD0iNDM5Ljc1IiB5PSIzOTQuNzQyMiI+RG9jdG9yPC90ZXh0PjxsaW5lIHN0eWxlPSJzdHJva2U6IzE4MTgxODtzdHJva2Utd2lkdGg6MC41OyIgeDE9IjM1OC41IiB4Mj0iNTMwLjUiIHkxPSI0MDUiIHkyPSI0MDUiLz48ZWxsaXBzZSBjeD0iMzY4LjUiIGN5PSI0MTcuOTkyMiIgZmlsbD0ibm9uZSIgcng9IjMiIHJ5PSIzIiBzdHlsZT0ic3Ryb2tlOiMwMzgwNDg7c3Ryb2tlLXdpZHRoOjEuMDsiLz48dGV4dCBmaWxsPSIjMDAwMDAwIiBmb250LWZhbWlseT0ic2Fucy1zZXJpZiIgZm9udC1zaXplPSIxNCIgbGVuZ3RoQWRqdXN0PSJzcGFjaW5nIiB0ZXh0TGVuZ3RoPSI4NSIgeD0iMzc3LjUiIHk9IjQyMi4yMzQ0Ij5uYW1lOiBTdHJpbmc8L3RleHQ+PGVsbGlwc2UgY3g9IjM2OC41IiBjeT0iNDMyLjk3NjYiIGZpbGw9Im5vbmUiIHJ4PSIzIiByeT0iMyIgc3R5bGU9InN0cm9rZTojMDM4MDQ4O3N0cm9rZS13aWR0aDoxLjA7Ii8+PHRleHQgZmlsbD0iIzAwMDAwMCIgZm9udC1mYW1pbHk9InNhbnMtc2VyaWYiIGZvbnQtc2l6ZT0iMTQiIGxlbmd0aEFkanVzdD0ic3BhY2luZyIgdGV4dExlbmd0aD0iODYiIHg9IjM3Ny41IiB5PSI0MzcuMjE4OCI+aW1hZ2U6IEltYWdlPC90ZXh0PjxlbGxpcHNlIGN4PSIzNjguNSIgY3k9IjQ0Ny45NjA5IiBmaWxsPSJub25lIiByeD0iMyIgcnk9IjMiIHN0eWxlPSJzdHJva2U6IzAzODA0ODtzdHJva2Utd2lkdGg6MS4wOyIvPjx0ZXh0IGZpbGw9IiMwMDAwMDAiIGZvbnQtZmFtaWx5PSJzYW5zLXNlcmlmIiBmb250LXNpemU9IjE0IiBsZW5ndGhBZGp1c3Q9InNwYWNpbmciIHRleHRMZW5ndGg9Ijk4IiB4PSIzNzcuNSIgeT0iNDUyLjIwMzEiPmRlZ3JlZTogU3RyaW5nPC90ZXh0PjxlbGxpcHNlIGN4PSIzNjguNSIgY3k9IjQ2Mi45NDUzIiBmaWxsPSJub25lIiByeD0iMyIgcnk9IjMiIHN0eWxlPSJzdHJva2U6IzAzODA0ODtzdHJva2Utd2lkdGg6MS4wOyIvPjx0ZXh0IGZpbGw9IiMwMDAwMDAiIGZvbnQtZmFtaWx5PSJzYW5zLXNlcmlmIiBmb250LXNpemU9IjE0IiBsZW5ndGhBZGp1c3Q9InNwYWNpbmciIHRleHRMZW5ndGg9IjEzMyIgeD0iMzc3LjUiIHk9IjQ2Ny4xODc1Ij5leHBlcmllbmNlOiBJbnRlZ2VyPC90ZXh0PjxlbGxpcHNlIGN4PSIzNjguNSIgY3k9IjQ3Ny45Mjk3IiBmaWxsPSJub25lIiByeD0iMyIgcnk9IjMiIHN0eWxlPSJzdHJva2U6IzAzODA0ODtzdHJva2Utd2lkdGg6MS4wOyIvPjx0ZXh0IGZpbGw9IiMwMDAwMDAiIGZvbnQtZmFtaWx5PSJzYW5zLXNlcmlmIiBmb250LXNpemU9IjE0IiBsZW5ndGhBZGp1c3Q9InNwYWNpbmciIHRleHRMZW5ndGg9IjEwNiIgeD0iMzc3LjUiIHk9IjQ4Mi4xNzE5Ij5jaGFtYmVyOiBTdHJpbmc8L3RleHQ+PGVsbGlwc2UgY3g9IjM2OC41IiBjeT0iNDkyLjkxNDEiIGZpbGw9Im5vbmUiIHJ4PSIzIiByeT0iMyIgc3R5bGU9InN0cm9rZTojMDM4MDQ4O3N0cm9rZS13aWR0aDoxLjA7Ii8+PHRleHQgZmlsbD0iIzAwMDAwMCIgZm9udC1mYW1pbHk9InNhbnMtc2VyaWYiIGZvbnQtc2l6ZT0iMTQiIGxlbmd0aEFkanVzdD0ic3BhY2luZyIgdGV4dExlbmd0aD0iODQiIHg9IjM3Ny41IiB5PSI0OTcuMTU2MyI+ZmVlOiBJbnRlZ2VyPC90ZXh0PjxlbGxpcHNlIGN4PSIzNjguNSIgY3k9IjUwNy44OTg0IiBmaWxsPSJub25lIiByeD0iMyIgcnk9IjMiIHN0eWxlPSJzdHJva2U6IzAzODA0ODtzdHJva2Utd2lkdGg6MS4wOyIvPjx0ZXh0IGZpbGw9IiMwMDAwMDAiIGZvbnQtZmFtaWx5PSJzYW5zLXNlcmlmIiBmb250LXNpemU9IjE0IiBsZW5ndGhBZGp1c3Q9InNwYWNpbmciIHRleHRMZW5ndGg9IjE0OCIgeD0iMzc3LjUiIHk9IjUxMi4xNDA2Ij5mb2xsb3d1cF9mZWU6IEludGVnZXI8L3RleHQ+PGVsbGlwc2UgY3g9IjM2OC41IiBjeT0iNTIyLjg4MjgiIGZpbGw9Im5vbmUiIHJ4PSIzIiByeT0iMyIgc3R5bGU9InN0cm9rZTojMDM4MDQ4O3N0cm9rZS13aWR0aDoxLjA7Ii8+PHRleHQgZmlsbD0iIzAwMDAwMCIgZm9udC1mYW1pbHk9InNhbnMtc2VyaWYiIGZvbnQtc2l6ZT0iMTQiIGxlbmd0aEFkanVzdD0ic3BhY2luZyIgdGV4dExlbmd0aD0iODUiIHg9IjM3Ny41IiB5PSI1MjcuMTI1Ij5ibWRjOiBTdHJpbmc8L3RleHQ+PGVsbGlwc2UgY3g9IjM2OC41IiBjeT0iNTM3Ljg2NzIiIGZpbGw9Im5vbmUiIHJ4PSIzIiByeT0iMyIgc3R5bGU9InN0cm9rZTojMDM4MDQ4O3N0cm9rZS13aWR0aDoxLjA7Ii8+PHRleHQgZmlsbD0iIzAwMDAwMCIgZm9udC1mYW1pbHk9InNhbnMtc2VyaWYiIGZvbnQtc2l6ZT0iMTQiIGxlbmd0aEFkanVzdD0ic3BhY2luZyIgdGV4dExlbmd0aD0iMTE5IiB4PSIzNzcuNSIgeT0iNTQyLjEwOTQiPmRlc2NyaXB0aW9uOiBUZXh0PC90ZXh0PjxlbGxpcHNlIGN4PSIzNjguNSIgY3k9IjU1Mi44NTE2IiBmaWxsPSJub25lIiByeD0iMyIgcnk9IjMiIHN0eWxlPSJzdHJva2U6IzAzODA0ODtzdHJva2Utd2lkdGg6MS4wOyIvPjx0ZXh0IGZpbGw9IiMwMDAwMDAiIGZvbnQtZmFtaWx5PSJzYW5zLXNlcmlmIiBmb250LXNpemU9IjE0IiBsZW5ndGhBZGp1c3Q9InNwYWNpbmciIHRleHRMZW5ndGg9Ijk5IiB4PSIzNzcuNSIgeT0iNTU3LjA5MzgiPnpvb21fbGluazogVVJMPC90ZXh0PjxlbGxpcHNlIGN4PSIzNjguNSIgY3k9IjU2Ny44MzU5IiBmaWxsPSJub25lIiByeD0iMyIgcnk9IjMiIHN0eWxlPSJzdHJva2U6IzAzODA0ODtzdHJva2Utd2lkdGg6MS4wOyIvPjx0ZXh0IGZpbGw9IiMwMDAwMDAiIGZvbnQtZmFtaWx5PSJzYW5zLXNlcmlmIiBmb250LXNpemU9IjE0IiBsZW5ndGhBZGp1c3Q9InNwYWNpbmciIHRleHRMZW5ndGg9IjkxIiB4PSIzNzcuNSIgeT0iNTcyLjA3ODEiPnJhdGluZzogRmxvYXQ8L3RleHQ+PGxpbmUgc3R5bGU9InN0cm9rZTojMTgxODE4O3N0cm9rZS13aWR0aDowLjU7IiB4MT0iMzU4LjUiIHgyPSI1MzAuNSIgeTE9IjU3Ny44MjgxIiB5Mj0iNTc3LjgyODEiLz48L2c+PCEtLWNsYXNzIERvY3RvclNjaGVkdWxlLS0+PGcgaWQ9ImVsZW1fRG9jdG9yU2NoZWR1bGUiPjxyZWN0IGNvZGVMaW5lPSIyNCIgZmlsbD0iI0YxRjFGMSIgaGVpZ2h0PSI5Mi45NTMxIiBpZD0iRG9jdG9yU2NoZWR1bGUiIHJ4PSIyLjUiIHJ5PSIyLjUiIHN0eWxlPSJzdHJva2U6IzE4MTgxODtzdHJva2Utd2lkdGg6MC41OyIgd2lkdGg9IjE2MCIgeD0iMTg3LjUiIHk9IjE5Ny41Ii8+PGVsbGlwc2UgY3g9IjIxNiIgY3k9IjIxMy41IiBmaWxsPSIjQUREMUIyIiByeD0iMTEiIHJ5PSIxMSIgc3R5bGU9InN0cm9rZTojMTgxODE4O3N0cm9rZS13aWR0aDoxLjA7Ii8+PHBhdGggZD0iTTIxMy42MjUsMjE3Ljc1IEwyMTMuNjI1LDIxOS41IEwyMTguNTYyNSwyMTkuNSBMMjE4LjU2MjUsMjE3Ljc1IEwyMTMuNjI1LDIxNy43NSBaIE0yMTQuMzEyNSwyMTguNDM3NSBRMjE0LjMxMjUsMjE4LjQzNzUgMjE0LjMxMjUsMjA5LjI1IEwyMTIuNTYyNSwyMDkuMjUgUTIxMi41NjI1LDIwOS4yNSAyMTIuNTYyNSwyMTguNDM3NSBMMjE0LjMxMjUsMjE4LjQzNzUgWiBNMjE3Ljg3NSwyMTguNDM3NSBMMjE5LjYyNSwyMTguNDM3NSBRMjE5LjYyNSwyMTguNDM3NSAyMTkuNjI1LDIxNS42MjUgTDIxNy44NzUsMjE1LjYyNSBRMjE3Ljg3NSwyMTUuNjI1IDIxNy44NzUsMjE4LjQzNzUgWiBNMjE3Ljg3NSwyMDkuMjUgUTIxNy44NzUsMjA5LjI1IDIxNy44NzUsMjEyLjA2MjUgTDIxOS42MjUsMjEyLjA2MjUgUTIxOS42MjUsMjEyLjA2MjUgMjE5LjYyNSwyMDkuMjUgTDIxNy44NzUsMjA5LjI1IFogTTIxMy42MjUsMjA5LjkzNzUgTDIxOC41NjI1LDIwOS45Mzc1IEwyMTguNTYyNSwyMDguMTg3NSBMMjEzLjYyNSwyMDguMTg3NSBMMjEzLjYyNSwyMDkuOTM3NSBaICIgZmlsbD0iIzAwMDAwMCIvPjx0ZXh0IGZpbGw9IiMwMDAwMDAiIGZvbnQtZmFtaWx5PSJzYW5zLXNlcmlmIiBmb250LXNpemU9IjE0IiBsZW5ndGhBZGp1c3Q9InNwYWNpbmciIHRleHRMZW5ndGg9Ijk4IiB4PSIyMzMiIHk9IjIxOS4yNDIyIj5Eb2N0b3JTY2hlZHVsZTwvdGV4dD48bGluZSBzdHlsZT0ic3Ryb2tlOiMxODE4MTg7c3Ryb2tlLXdpZHRoOjAuNTsiIHgxPSIxODguNSIgeDI9IjM0Ni41IiB5MT0iMjI5LjUiIHkyPSIyMjkuNSIvPjxlbGxpcHNlIGN4PSIxOTguNSIgY3k9IjI0Mi40OTIyIiBmaWxsPSJub25lIiByeD0iMyIgcnk9IjMiIHN0eWxlPSJzdHJva2U6IzAzODA0ODtzdHJva2Utd2lkdGg6MS4wOyIvPjx0ZXh0IGZpbGw9IiMwMDAwMDAiIGZvbnQtZmFtaWx5PSJzYW5zLXNlcmlmIiBmb250LXNpemU9IjE0IiBsZW5ndGhBZGp1c3Q9InNwYWNpbmciIHRleHRMZW5ndGg9IjEzNCIgeD0iMjA3LjUiIHk9IjI0Ni43MzQ0Ij5kYXlfb2Zfd2VlazogU3RyaW5nPC90ZXh0PjxlbGxpcHNlIGN4PSIxOTguNSIgY3k9IjI1Ny40NzY2IiBmaWxsPSJub25lIiByeD0iMyIgcnk9IjMiIHN0eWxlPSJzdHJva2U6IzAzODA0ODtzdHJva2Utd2lkdGg6MS4wOyIvPjx0ZXh0IGZpbGw9IiMwMDAwMDAiIGZvbnQtZmFtaWx5PSJzYW5zLXNlcmlmIiBmb250LXNpemU9IjE0IiBsZW5ndGhBZGp1c3Q9InNwYWNpbmciIHRleHRMZW5ndGg9IjExNCIgeD0iMjA3LjUiIHk9IjI2MS43MTg4Ij5zdGFydF90aW1lOiBUaW1lPC90ZXh0PjxlbGxpcHNlIGN4PSIxOTguNSIgY3k9IjI3Mi40NjA5IiBmaWxsPSJub25lIiByeD0iMyIgcnk9IjMiIHN0eWxlPSJzdHJva2U6IzAzODA0ODtzdHJva2Utd2lkdGg6MS4wOyIvPjx0ZXh0IGZpbGw9IiMwMDAwMDAiIGZvbnQtZmFtaWx5PSJzYW5zLXNlcmlmIiBmb250LXNpemU9IjE0IiBsZW5ndGhBZGp1c3Q9InNwYWNpbmciIHRleHRMZW5ndGg9IjEwMCIgeD0iMjA3LjUiIHk9IjI3Ni43MDMxIj5lbmRfdGltZTogVGltZTwvdGV4dD48bGluZSBzdHlsZT0ic3Ryb2tlOiMxODE4MTg7c3Ryb2tlLXdpZHRoOjAuNTsiIHgxPSIxODguNSIgeDI9IjM0Ni41IiB5MT0iMjgyLjQ1MzEiIHkyPSIyODIuNDUzMSIvPjwvZz48IS0tY2xhc3MgUHJvZmlsZS0tPjxnIGlkPSJlbGVtX1Byb2ZpbGUiPjxyZWN0IGNvZGVMaW5lPSIzMCIgZmlsbD0iI0YxRjFGMSIgaGVpZ2h0PSIxMDcuOTM3NSIgaWQ9IlByb2ZpbGUiIHJ4PSIyLjUiIHJ5PSIyLjUiIHN0eWxlPSJzdHJva2U6IzE4MTgxODtzdHJva2Utd2lkdGg6MC41OyIgd2lkdGg9IjEzMSIgeD0iODYwIiB5PSI3Ii8+PGVsbGlwc2UgY3g9Ijg5Ny41IiBjeT0iMjMiIGZpbGw9IiNBREQxQjIiIHJ4PSIxMSIgcnk9IjExIiBzdHlsZT0ic3Ryb2tlOiMxODE4MTg7c3Ryb2tlLXdpZHRoOjEuMDsiLz48cGF0aCBkPSJNODk1LjEyNSwyNy4yNSBMODk1LjEyNSwyOSBMOTAwLjA2MjUsMjkgTDkwMC4wNjI1LDI3LjI1IEw4OTUuMTI1LDI3LjI1IFogTTg5NS44MTI1LDI3LjkzNzUgUTg5NS44MTI1LDI3LjkzNzUgODk1LjgxMjUsMTguNzUgTDg5NC4wNjI1LDE4Ljc1IFE4OTQuMDYyNSwxOC43NSA4OTQuMDYyNSwyNy45Mzc1IEw4OTUuODEyNSwyNy45Mzc1IFogTTg5OS4zNzUsMjcuOTM3NSBMOTAxLjEyNSwyNy45Mzc1IFE5MDEuMTI1LDI3LjkzNzUgOTAxLjEyNSwyNS4xMjUgTDg5OS4zNzUsMjUuMTI1IFE4OTkuMzc1LDI1LjEyNSA4OTkuMzc1LDI3LjkzNzUgWiBNODk5LjM3NSwxOC43NSBRODk5LjM3NSwxOC43NSA4OTkuMzc1LDIxLjU2MjUgTDkwMS4xMjUsMjEuNTYyNSBROTAxLjEyNSwyMS41NjI1IDkwMS4xMjUsMTguNzUgTDg5OS4zNzUsMTguNzUgWiBNODk1LjEyNSwxOS40Mzc1IEw5MDAuMDYyNSwxOS40Mzc1IEw5MDAuMDYyNSwxNy42ODc1IEw4OTUuMTI1LDE3LjY4NzUgTDg5NS4xMjUsMTkuNDM3NSBaICIgZmlsbD0iIzAwMDAwMCIvPjx0ZXh0IGZpbGw9IiMwMDAwMDAiIGZvbnQtZmFtaWx5PSJzYW5zLXNlcmlmIiBmb250LXNpemU9IjE0IiBsZW5ndGhBZGp1c3Q9InNwYWNpbmciIHRleHRMZW5ndGg9IjQ5IiB4PSI5MTYuNSIgeT0iMjguNzQyMiI+UHJvZmlsZTwvdGV4dD48bGluZSBzdHlsZT0ic3Ryb2tlOiMxODE4MTg7c3Ryb2tlLXdpZHRoOjAuNTsiIHgxPSI4NjEiIHgyPSI5OTAiIHkxPSIzOSIgeTI9IjM5Ii8+PGVsbGlwc2UgY3g9Ijg3MSIgY3k9IjUxLjk5MjIiIGZpbGw9Im5vbmUiIHJ4PSIzIiByeT0iMyIgc3R5bGU9InN0cm9rZTojMDM4MDQ4O3N0cm9rZS13aWR0aDoxLjA7Ii8+PHRleHQgZmlsbD0iIzAwMDAwMCIgZm9udC1mYW1pbHk9InNhbnMtc2VyaWYiIGZvbnQtc2l6ZT0iMTQiIGxlbmd0aEFkanVzdD0ic3BhY2luZyIgdGV4dExlbmd0aD0iODYiIHg9Ijg4MCIgeT0iNTYuMjM0NCI+aW1hZ2U6IEltYWdlPC90ZXh0PjxlbGxpcHNlIGN4PSI4NzEiIGN5PSI2Ni45NzY2IiBmaWxsPSJub25lIiByeD0iMyIgcnk9IjMiIHN0eWxlPSJzdHJva2U6IzAzODA0ODtzdHJva2Utd2lkdGg6MS4wOyIvPjx0ZXh0IGZpbGw9IiMwMDAwMDAiIGZvbnQtZmFtaWx5PSJzYW5zLXNlcmlmIiBmb250LXNpemU9IjE0IiBsZW5ndGhBZGp1c3Q9InNwYWNpbmciIHRleHRMZW5ndGg9IjkxIiB4PSI4ODAiIHk9IjcxLjIxODgiPnBob25lOiBTdHJpbmc8L3RleHQ+PGVsbGlwc2UgY3g9Ijg3MSIgY3k9IjgxLjk2MDkiIGZpbGw9Im5vbmUiIHJ4PSIzIiByeT0iMyIgc3R5bGU9InN0cm9rZTojMDM4MDQ4O3N0cm9rZS13aWR0aDoxLjA7Ii8+PHRleHQgZmlsbD0iIzAwMDAwMCIgZm9udC1mYW1pbHk9InNhbnMtc2VyaWYiIGZvbnQtc2l6ZT0iMTQiIGxlbmd0aEFkanVzdD0ic3BhY2luZyIgdGV4dExlbmd0aD0iMTA1IiB4PSI4ODAiIHk9Ijg2LjIwMzEiPmFkZHJlc3M6IFN0cmluZzwvdGV4dD48ZWxsaXBzZSBjeD0iODcxIiBjeT0iOTYuOTQ1MyIgZmlsbD0ibm9uZSIgcng9IjMiIHJ5PSIzIiBzdHlsZT0ic3Ryb2tlOiMwMzgwNDg7c3Ryb2tlLXdpZHRoOjEuMDsiLz48dGV4dCBmaWxsPSIjMDAwMDAwIiBmb250LWZhbWlseT0ic2Fucy1zZXJpZiIgZm9udC1zaXplPSIxNCIgbGVuZ3RoQWRqdXN0PSJzcGFjaW5nIiB0ZXh0TGVuZ3RoPSI4NCIgeD0iODgwIiB5PSIxMDEuMTg3NSI+Y2l0eTogU3RyaW5nPC90ZXh0PjxsaW5lIHN0eWxlPSJzdHJva2U6IzE4MTgxODtzdHJva2Utd2lkdGg6MC41OyIgeDE9Ijg2MSIgeDI9Ijk5MCIgeTE9IjEwNi45Mzc1IiB5Mj0iMTA2LjkzNzUiLz48L2c+PCEtLWNsYXNzIEFwcG9pbnRtZW50LS0+PGcgaWQ9ImVsZW1fQXBwb2ludG1lbnQiPjxyZWN0IGNvZGVMaW5lPSIzNyIgZmlsbD0iI0YxRjFGMSIgaGVpZ2h0PSIxMzcuOTA2MyIgaWQ9IkFwcG9pbnRtZW50IiByeD0iMi41IiByeT0iMi41IiBzdHlsZT0ic3Ryb2tlOiMxODE4MTg7c3Ryb2tlLXdpZHRoOjAuNTsiIHdpZHRoPSIxMjQiIHg9IjM4Mi41IiB5PSIxNzUiLz48ZWxsaXBzZSBjeD0iNDAzLjgiIGN5PSIxOTEiIGZpbGw9IiNBREQxQjIiIHJ4PSIxMSIgcnk9IjExIiBzdHlsZT0ic3Ryb2tlOiMxODE4MTg7c3Ryb2tlLXdpZHRoOjEuMDsiLz48cGF0aCBkPSJNNDAxLjQyNSwxOTUuMjUgTDQwMS40MjUsMTk3IEw0MDYuMzYyNSwxOTcgTDQwNi4zNjI1LDE5NS4yNSBMNDAxLjQyNSwxOTUuMjUgWiBNNDAyLjExMjUsMTk1LjkzNzUgUTQwMi4xMTI1LDE5NS45Mzc1IDQwMi4xMTI1LDE4Ni43NSBMNDAwLjM2MjUsMTg2Ljc1IFE0MDAuMzYyNSwxODYuNzUgNDAwLjM2MjUsMTk1LjkzNzUgTDQwMi4xMTI1LDE5NS45Mzc1IFogTTQwNS42NzUsMTk1LjkzNzUgTDQwNy40MjUsMTk1LjkzNzUgUTQwNy40MjUsMTk1LjkzNzUgNDA3LjQyNSwxOTMuMTI1IEw0MDUuNjc1LDE5My4xMjUgUTQwNS42NzUsMTkzLjEyNSA0MDUuNjc1LDE5NS45Mzc1IFogTTQwNS42NzUsMTg2Ljc1IFE0MDUuNjc1LDE4Ni43NSA0MDUuNjc1LDE4OS41NjI1IEw0MDcuNDI1LDE4OS41NjI1IFE0MDcuNDI1LDE4OS41NjI1IDQwNy40MjUsMTg2Ljc1IEw0MDUuNjc1LDE4Ni43NSBaIE00MDEuNDI1LDE4Ny40Mzc1IEw0MDYuMzYyNSwxODcuNDM3NSBMNDA2LjM2MjUsMTg1LjY4NzUgTDQwMS40MjUsMTg1LjY4NzUgTDQwMS40MjUsMTg3LjQzNzUgWiAiIGZpbGw9IiMwMDAwMDAiLz48dGV4dCBmaWxsPSIjMDAwMDAwIiBmb250LWZhbWlseT0ic2Fucy1zZXJpZiIgZm9udC1zaXplPSIxNCIgbGVuZ3RoQWRqdXN0PSJzcGFjaW5nIiB0ZXh0TGVuZ3RoPSI3OCIgeD0iNDE5LjIiIHk9IjE5Ni43NDIyIj5BcHBvaW50bWVudDwvdGV4dD48bGluZSBzdHlsZT0ic3Ryb2tlOiMxODE4MTg7c3Ryb2tlLXdpZHRoOjAuNTsiIHgxPSIzODMuNSIgeDI9IjUwNS41IiB5MT0iMjA3IiB5Mj0iMjA3Ii8+PGVsbGlwc2UgY3g9IjM5My41IiBjeT0iMjE5Ljk5MjIiIGZpbGw9Im5vbmUiIHJ4PSIzIiByeT0iMyIgc3R5bGU9InN0cm9rZTojMDM4MDQ4O3N0cm9rZS13aWR0aDoxLjA7Ii8+PHRleHQgZmlsbD0iIzAwMDAwMCIgZm9udC1mYW1pbHk9InNhbnMtc2VyaWYiIGZvbnQtc2l6ZT0iMTQiIGxlbmd0aEFkanVzdD0ic3BhY2luZyIgdGV4dExlbmd0aD0iNzAiIHg9IjQwMi41IiB5PSIyMjQuMjM0NCI+ZGF0ZTogRGF0ZTwvdGV4dD48ZWxsaXBzZSBjeD0iMzkzLjUiIGN5PSIyMzQuOTc2NiIgZmlsbD0ibm9uZSIgcng9IjMiIHJ5PSIzIiBzdHlsZT0ic3Ryb2tlOiMwMzgwNDg7c3Ryb2tlLXdpZHRoOjEuMDsiLz48dGV4dCBmaWxsPSIjMDAwMDAwIiBmb250LWZhbWlseT0ic2Fucy1zZXJpZiIgZm9udC1zaXplPSIxNCIgbGVuZ3RoQWRqdXN0PSJzcGFjaW5nIiB0ZXh0TGVuZ3RoPSI3MiIgeD0iNDAyLjUiIHk9IjIzOS4yMTg4Ij50aW1lOiBUaW1lPC90ZXh0PjxlbGxpcHNlIGN4PSIzOTMuNSIgY3k9IjI0OS45NjA5IiBmaWxsPSJub25lIiByeD0iMyIgcnk9IjMiIHN0eWxlPSJzdHJva2U6IzAzODA0ODtzdHJva2Utd2lkdGg6MS4wOyIvPjx0ZXh0IGZpbGw9IiMwMDAwMDAiIGZvbnQtZmFtaWx5PSJzYW5zLXNlcmlmIiBmb250LXNpemU9IjE0IiBsZW5ndGhBZGp1c3Q9InNwYWNpbmciIHRleHRMZW5ndGg9Ijk4IiB4PSI0MDIuNSIgeT0iMjU0LjIwMzEiPnN0YXR1czogU3RyaW5nPC90ZXh0PjxlbGxpcHNlIGN4PSIzOTMuNSIgY3k9IjI2NC45NDUzIiBmaWxsPSJub25lIiByeD0iMyIgcnk9IjMiIHN0eWxlPSJzdHJva2U6IzAzODA0ODtzdHJva2Utd2lkdGg6MS4wOyIvPjx0ZXh0IGZpbGw9IiMwMDAwMDAiIGZvbnQtZmFtaWx5PSJzYW5zLXNlcmlmIiBmb250LXNpemU9IjE0IiBsZW5ndGhBZGp1c3Q9InNwYWNpbmciIHRleHRMZW5ndGg9IjkyIiB4PSI0MDIuNSIgeT0iMjY5LjE4NzUiPnByb2JsZW06IFRleHQ8L3RleHQ+PGVsbGlwc2UgY3g9IjM5My41IiBjeT0iMjc5LjkyOTciIGZpbGw9Im5vbmUiIHJ4PSIzIiByeT0iMyIgc3R5bGU9InN0cm9rZTojMDM4MDQ4O3N0cm9rZS13aWR0aDoxLjA7Ii8+PHRleHQgZmlsbD0iIzAwMDAwMCIgZm9udC1mYW1pbHk9InNhbnMtc2VyaWYiIGZvbnQtc2l6ZT0iMTQiIGxlbmd0aEFkanVzdD0ic3BhY2luZyIgdGV4dExlbmd0aD0iOTEiIHg9IjQwMi41IiB5PSIyODQuMTcxOSI+ZmVlczogSW50ZWdlcjwvdGV4dD48ZWxsaXBzZSBjeD0iMzkzLjUiIGN5PSIyOTQuOTE0MSIgZmlsbD0ibm9uZSIgcng9IjMiIHJ5PSIzIiBzdHlsZT0ic3Ryb2tlOiMwMzgwNDg7c3Ryb2tlLXdpZHRoOjEuMDsiLz48dGV4dCBmaWxsPSIjMDAwMDAwIiBmb250LWZhbWlseT0ic2Fucy1zZXJpZiIgZm9udC1zaXplPSIxNCIgbGVuZ3RoQWRqdXN0PSJzcGFjaW5nIiB0ZXh0TGVuZ3RoPSI4NCIgeD0iNDAyLjUiIHk9IjI5OS4xNTYzIj5kdWU6IEludGVnZXI8L3RleHQ+PGxpbmUgc3R5bGU9InN0cm9rZTojMTgxODE4O3N0cm9rZS13aWR0aDowLjU7IiB4MT0iMzgzLjUiIHgyPSI1MDUuNSIgeTE9IjMwNC45MDYzIiB5Mj0iMzA0LjkwNjMiLz48L2c+PCEtLWNsYXNzIFBheW1lbnQtLT48ZyBpZD0iZWxlbV9QYXltZW50Ij48cmVjdCBjb2RlTGluZT0iNDYiIGZpbGw9IiNGMUYxRjEiIGhlaWdodD0iOTIuOTUzMSIgaWQ9IlBheW1lbnQiIHJ4PSIyLjUiIHJ5PSIyLjUiIHN0eWxlPSJzdHJva2U6IzE4MTgxODtzdHJva2Utd2lkdGg6MC41OyIgd2lkdGg9IjE4MCIgeD0iMzU0LjUiIHk9IjE0LjUiLz48ZWxsaXBzZSBjeD0iNDE1LjI1IiBjeT0iMzAuNSIgZmlsbD0iI0FERDFCMiIgcng9IjExIiByeT0iMTEiIHN0eWxlPSJzdHJva2U6IzE4MTgxODtzdHJva2Utd2lkdGg6MS4wOyIvPjxwYXRoIGQ9Ik00MTIuODc1LDM0Ljc1IEw0MTIuODc1LDM2LjUgTDQxNy44MTI1LDM2LjUgTDQxNy44MTI1LDM0Ljc1IEw0MTIuODc1LDM0Ljc1IFogTTQxMy41NjI1LDM1LjQzNzUgUTQxMy41NjI1LDM1LjQzNzUgNDEzLjU2MjUsMjYuMjUgTDQxMS44MTI1LDI2LjI1IFE0MTEuODEyNSwyNi4yNSA0MTEuODEyNSwzNS40Mzc1IEw0MTMuNTYyNSwzNS40Mzc1IFogTTQxNy4xMjUsMzUuNDM3NSBMNDE4Ljg3NSwzNS40Mzc1IFE0MTguODc1LDM1LjQzNzUgNDE4Ljg3NSwzMi42MjUgTDQxNy4xMjUsMzIuNjI1IFE0MTcuMTI1LDMyLjYyNSA0MTcuMTI1LDM1LjQzNzUgWiBNNDE3LjEyNSwyNi4yNSBRNDE3LjEyNSwyNi4yNSA0MTcuMTI1LDI5LjA2MjUgTDQxOC44NzUsMjkuMDYyNSBRNDE4Ljg3NSwyOS4wNjI1IDQxOC44NzUsMjYuMjUgTDQxNy4xMjUsMjYuMjUgWiBNNDEyLjg3NSwyNi45Mzc1IEw0MTcuODEyNSwyNi45Mzc1IEw0MTcuODEyNSwyNS4xODc1IEw0MTIuODc1LDI1LjE4NzUgTDQxMi44NzUsMjYuOTM3NSBaICIgZmlsbD0iIzAwMDAwMCIvPjx0ZXh0IGZpbGw9IiMwMDAwMDAiIGZvbnQtZmFtaWx5PSJzYW5zLXNlcmlmIiBmb250LXNpemU9IjE0IiBsZW5ndGhBZGp1c3Q9InNwYWNpbmciIHRleHRMZW5ndGg9IjUwIiB4PSI0MzUuNzUiIHk9IjM2LjI0MjIiPlBheW1lbnQ8L3RleHQ+PGxpbmUgc3R5bGU9InN0cm9rZTojMTgxODE4O3N0cm9rZS13aWR0aDowLjU7IiB4MT0iMzU1LjUiIHgyPSI1MzMuNSIgeTE9IjQ2LjUiIHkyPSI0Ni41Ii8+PGVsbGlwc2UgY3g9IjM2NS41IiBjeT0iNTkuNDkyMiIgZmlsbD0ibm9uZSIgcng9IjMiIHJ5PSIzIiBzdHlsZT0ic3Ryb2tlOiMwMzgwNDg7c3Ryb2tlLXdpZHRoOjEuMDsiLz48dGV4dCBmaWxsPSIjMDAwMDAwIiBmb250LWZhbWlseT0ic2Fucy1zZXJpZiIgZm9udC1zaXplPSIxNCIgbGVuZ3RoQWRqdXN0PSJzcGFjaW5nIiB0ZXh0TGVuZ3RoPSI5OSIgeD0iMzc0LjUiIHk9IjYzLjczNDQiPm1ldGhvZDogU3RyaW5nPC90ZXh0PjxlbGxpcHNlIGN4PSIzNjUuNSIgY3k9Ijc0LjQ3NjYiIGZpbGw9Im5vbmUiIHJ4PSIzIiByeT0iMyIgc3R5bGU9InN0cm9rZTojMDM4MDQ4O3N0cm9rZS13aWR0aDoxLjA7Ii8+PHRleHQgZmlsbD0iIzAwMDAwMCIgZm9udC1mYW1pbHk9InNhbnMtc2VyaWYiIGZvbnQtc2l6ZT0iMTQiIGxlbmd0aEFkanVzdD0ic3BhY2luZyIgdGV4dExlbmd0aD0iMTU0IiB4PSIzNzQuNSIgeT0iNzguNzE4OCI+dHJhbnNhY3Rpb25faWQ6IFN0cmluZzwvdGV4dD48ZWxsaXBzZSBjeD0iMzY1LjUiIGN5PSI4OS40NjA5IiBmaWxsPSJub25lIiByeD0iMyIgcnk9IjMiIHN0eWxlPSJzdHJva2U6IzAzODA0ODtzdHJva2Utd2lkdGg6MS4wOyIvPjx0ZXh0IGZpbGw9IiMwMDAwMDAiIGZvbnQtZmFtaWx5PSJzYW5zLXNlcmlmIiBmb250LXNpemU9IjE0IiBsZW5ndGhBZGp1c3Q9InNwYWNpbmciIHRleHRMZW5ndGg9IjEwNiIgeD0iMzc0LjUiIHk9IjkzLjcwMzEiPmFtb3VudDogSW50ZWdlcjwvdGV4dD48bGluZSBzdHlsZT0ic3Ryb2tlOiMxODE4MTg7c3Ryb2tlLXdpZHRoOjAuNTsiIHgxPSIzNTUuNSIgeDI9IjUzMy41IiB5MT0iOTkuNDUzMSIgeTI9Ijk5LjQ1MzEiLz48L2c+PCEtLWNsYXNzIENvbnN1bHRhdGlvbi0tPjxnIGlkPSJlbGVtX0NvbnN1bHRhdGlvbiI+PHJlY3QgY29kZUxpbmU9IjUyIiBmaWxsPSIjRjFGMUYxIiBoZWlnaHQ9IjEyMi45MjE5IiBpZD0iQ29uc3VsdGF0aW9uIiByeD0iMi41IiByeT0iMi41IiBzdHlsZT0ic3Ryb2tlOiMxODE4MTg7c3Ryb2tlLXdpZHRoOjAuNTsiIHdpZHRoPSIxNTIiIHg9IjU0MS41IiB5PSIxODIuNSIvPjxlbGxpcHNlIGN4PSI1NzIuNyIgY3k9IjE5OC41IiBmaWxsPSIjQUREMUIyIiByeD0iMTEiIHJ5PSIxMSIgc3R5bGU9InN0cm9rZTojMTgxODE4O3N0cm9rZS13aWR0aDoxLjA7Ii8+PHBhdGggZD0iTTU3MC4zMjUsMjAyLjc1IEw1NzAuMzI1LDIwNC41IEw1NzUuMjYyNSwyMDQuNSBMNTc1LjI2MjUsMjAyLjc1IEw1NzAuMzI1LDIwMi43NSBaIE01NzEuMDEyNSwyMDMuNDM3NSBRNTcxLjAxMjUsMjAzLjQzNzUgNTcxLjAxMjUsMTk0LjI1IEw1NjkuMjYyNSwxOTQuMjUgUTU2OS4yNjI1LDE5NC4yNSA1NjkuMjYyNSwyMDMuNDM3NSBMNTcxLjAxMjUsMjAzLjQzNzUgWiBNNTc0LjU3NSwyMDMuNDM3NSBMNTc2LjMyNSwyMDMuNDM3NSBRNTc2LjMyNSwyMDMuNDM3NSA1NzYuMzI1LDIwMC42MjUgTDU3NC41NzUsMjAwLjYyNSBRNTc0LjU3NSwyMDAuNjI1IDU3NC41NzUsMjAzLjQzNzUgWiBNNTc0LjU3NSwxOTQuMjUgUTU3NC41NzUsMTk0LjI1IDU3NC41NzUsMTk3LjA2MjUgTDU3Ni4zMjUsMTk3LjA2MjUgUTU3Ni4zMjUsMTk3LjA2MjUgNTc2LjMyNSwxOTQuMjUgTDU3NC41NzUsMTk0LjI1IFogTTU3MC4zMjUsMTk0LjkzNzUgTDU3NS4yNjI1LDE5NC45Mzc1IEw1NzUuMjYyNSwxOTMuMTg3NSBMNTcwLjMyNSwxOTMuMTg3NSBMNTcwLjMyNSwxOTQuOTM3NSBaICIgZmlsbD0iIzAwMDAwMCIvPjx0ZXh0IGZpbGw9IiMwMDAwMDAiIGZvbnQtZmFtaWx5PSJzYW5zLXNlcmlmIiBmb250LXNpemU9IjE0IiBsZW5ndGhBZGp1c3Q9InNwYWNpbmciIHRleHRMZW5ndGg9Ijg0IiB4PSI1OTAuMyIgeT0iMjA0LjI0MjIiPkNvbnN1bHRhdGlvbjwvdGV4dD48bGluZSBzdHlsZT0ic3Ryb2tlOiMxODE4MTg7c3Ryb2tlLXdpZHRoOjAuNTsiIHgxPSI1NDIuNSIgeDI9IjY5Mi41IiB5MT0iMjE0LjUiIHkyPSIyMTQuNSIvPjxlbGxpcHNlIGN4PSI1NTIuNSIgY3k9IjIyNy40OTIyIiBmaWxsPSJub25lIiByeD0iMyIgcnk9IjMiIHN0eWxlPSJzdHJva2U6IzAzODA0ODtzdHJva2Utd2lkdGg6MS4wOyIvPjx0ZXh0IGZpbGw9IiMwMDAwMDAiIGZvbnQtZmFtaWx5PSJzYW5zLXNlcmlmIiBmb250LXNpemU9IjE0IiBsZW5ndGhBZGp1c3Q9InNwYWNpbmciIHRleHRMZW5ndGg9IjcwIiB4PSI1NjEuNSIgeT0iMjMxLjczNDQiPmRhdGU6IERhdGU8L3RleHQ+PGVsbGlwc2UgY3g9IjU1Mi41IiBjeT0iMjQyLjQ3NjYiIGZpbGw9Im5vbmUiIHJ4PSIzIiByeT0iMyIgc3R5bGU9InN0cm9rZTojMDM4MDQ4O3N0cm9rZS13aWR0aDoxLjA7Ii8+PHRleHQgZmlsbD0iIzAwMDAwMCIgZm9udC1mYW1pbHk9InNhbnMtc2VyaWYiIGZvbnQtc2l6ZT0iMTQiIGxlbmd0aEFkanVzdD0ic3BhY2luZyIgdGV4dExlbmd0aD0iNzEiIHg9IjU2MS41IiB5PSIyNDYuNzE4OCI+dGltZTogVGV4dDwvdGV4dD48ZWxsaXBzZSBjeD0iNTUyLjUiIGN5PSIyNTcuNDYwOSIgZmlsbD0ibm9uZSIgcng9IjMiIHJ5PSIzIiBzdHlsZT0ic3Ryb2tlOiMwMzgwNDg7c3Ryb2tlLXdpZHRoOjEuMDsiLz48dGV4dCBmaWxsPSIjMDAwMDAwIiBmb250LWZhbWlseT0ic2Fucy1zZXJpZiIgZm9udC1zaXplPSIxNCIgbGVuZ3RoQWRqdXN0PSJzcGFjaW5nIiB0ZXh0TGVuZ3RoPSI5OCIgeD0iNTYxLjUiIHk9IjI2MS43MDMxIj5zdGF0dXM6IFN0cmluZzwvdGV4dD48ZWxsaXBzZSBjeD0iNTUyLjUiIGN5PSIyNzIuNDQ1MyIgZmlsbD0ibm9uZSIgcng9IjMiIHJ5PSIzIiBzdHlsZT0ic3Ryb2tlOiMwMzgwNDg7c3Ryb2tlLXdpZHRoOjEuMDsiLz48dGV4dCBmaWxsPSIjMDAwMDAwIiBmb250LWZhbWlseT0ic2Fucy1zZXJpZiIgZm9udC1zaXplPSIxNCIgbGVuZ3RoQWRqdXN0PSJzcGFjaW5nIiB0ZXh0TGVuZ3RoPSI5MiIgeD0iNTYxLjUiIHk9IjI3Ni42ODc1Ij5wcm9ibGVtOiBUZXh0PC90ZXh0PjxlbGxpcHNlIGN4PSI1NTIuNSIgY3k9IjI4Ny40Mjk3IiBmaWxsPSJub25lIiByeD0iMyIgcnk9IjMiIHN0eWxlPSJzdHJva2U6IzAzODA0ODtzdHJva2Utd2lkdGg6MS4wOyIvPjx0ZXh0IGZpbGw9IiMwMDAwMDAiIGZvbnQtZmFtaWx5PSJzYW5zLXNlcmlmIiBmb250LXNpemU9IjE0IiBsZW5ndGhBZGp1c3Q9InNwYWNpbmciIHRleHRMZW5ndGg9IjEyNiIgeD0iNTYxLjUiIHk9IjI5MS42NzE5Ij5wcmVzY3JpcHRpb246IFRleHQ8L3RleHQ+PGxpbmUgc3R5bGU9InN0cm9rZTojMTgxODE4O3N0cm9rZS13aWR0aDowLjU7IiB4MT0iNTQyLjUiIHgyPSI2OTIuNSIgeTE9IjI5Ny40MjE5IiB5Mj0iMjk3LjQyMTkiLz48L2c+PCEtLWNsYXNzIFJldmlldy0tPjxnIGlkPSJlbGVtX1JldmlldyI+PHJlY3QgY29kZUxpbmU9IjYwIiBmaWxsPSIjRjFGMUYxIiBoZWlnaHQ9Ijc3Ljk2ODgiIGlkPSJSZXZpZXciIHJ4PSIyLjUiIHJ5PSIyLjUiIHN0eWxlPSJzdHJva2U6IzE4MTgxODtzdHJva2Utd2lkdGg6MC41OyIgd2lkdGg9IjEzMSIgeD0iNzI5IiB5PSIyMDUiLz48ZWxsaXBzZSBjeD0iNzY5LjIiIGN5PSIyMjEiIGZpbGw9IiNBREQxQjIiIHJ4PSIxMSIgcnk9IjExIiBzdHlsZT0ic3Ryb2tlOiMxODE4MTg7c3Ryb2tlLXdpZHRoOjEuMDsiLz48cGF0aCBkPSJNNzY2LjgyNSwyMjUuMjUgTDc2Ni44MjUsMjI3IEw3NzEuNzYyNSwyMjcgTDc3MS43NjI1LDIyNS4yNSBMNzY2LjgyNSwyMjUuMjUgWiBNNzY3LjUxMjUsMjI1LjkzNzUgUTc2Ny41MTI1LDIyNS45Mzc1IDc2Ny41MTI1LDIxNi43NSBMNzY1Ljc2MjUsMjE2Ljc1IFE3NjUuNzYyNSwyMTYuNzUgNzY1Ljc2MjUsMjI1LjkzNzUgTDc2Ny41MTI1LDIyNS45Mzc1IFogTTc3MS4wNzUsMjI1LjkzNzUgTDc3Mi44MjUsMjI1LjkzNzUgUTc3Mi44MjUsMjI1LjkzNzUgNzcyLjgyNSwyMjMuMTI1IEw3NzEuMDc1LDIyMy4xMjUgUTc3MS4wNzUsMjIzLjEyNSA3NzEuMDc1LDIyNS45Mzc1IFogTTc3MS4wNzUsMjE2Ljc1IFE3NzEuMDc1LDIxNi43NSA3NzEuMDc1LDIxOS41NjI1IEw3NzIuODI1LDIxOS41NjI1IFE3NzIuODI1LDIxOS41NjI1IDc3Mi44MjUsMjE2Ljc1IEw3NzEuMDc1LDIxNi43NSBaIE03NjYuODI1LDIxNy40Mzc1IEw3NzEuNzYyNSwyMTcuNDM3NSBMNzcxLjc2MjUsMjE1LjY4NzUgTDc2Ni44MjUsMjE1LjY4NzUgTDc2Ni44MjUsMjE3LjQzNzUgWiAiIGZpbGw9IiMwMDAwMDAiLz48dGV4dCBmaWxsPSIjMDAwMDAwIiBmb250LWZhbWlseT0ic2Fucy1zZXJpZiIgZm9udC1zaXplPSIxNCIgbGVuZ3RoQWRqdXN0PSJzcGFjaW5nIiB0ZXh0TGVuZ3RoPSI0MyIgeD0iNzg4LjgiIHk9IjIyNi43NDIyIj5SZXZpZXc8L3RleHQ+PGxpbmUgc3R5bGU9InN0cm9rZTojMTgxODE4O3N0cm9rZS13aWR0aDowLjU7IiB4MT0iNzMwIiB4Mj0iODU5IiB5MT0iMjM3IiB5Mj0iMjM3Ii8+PGVsbGlwc2UgY3g9Ijc0MCIgY3k9IjI0OS45OTIyIiBmaWxsPSJub25lIiByeD0iMyIgcnk9IjMiIHN0eWxlPSJzdHJva2U6IzAzODA0ODtzdHJva2Utd2lkdGg6MS4wOyIvPjx0ZXh0IGZpbGw9IiMwMDAwMDAiIGZvbnQtZmFtaWx5PSJzYW5zLXNlcmlmIiBmb250LXNpemU9IjE0IiBsZW5ndGhBZGp1c3Q9InNwYWNpbmciIHRleHRMZW5ndGg9IjkzIiB4PSI3NDkiIHk9IjI1NC4yMzQ0Ij5jb21tZW50OiBUZXh0PC90ZXh0PjxlbGxpcHNlIGN4PSI3NDAiIGN5PSIyNjQuOTc2NiIgZmlsbD0ibm9uZSIgcng9IjMiIHJ5PSIzIiBzdHlsZT0ic3Ryb2tlOiMwMzgwNDg7c3Ryb2tlLXdpZHRoOjEuMDsiLz48dGV4dCBmaWxsPSIjMDAwMDAwIiBmb250LWZhbWlseT0ic2Fucy1zZXJpZiIgZm9udC1zaXplPSIxNCIgbGVuZ3RoQWRqdXN0PSJzcGFjaW5nIiB0ZXh0TGVuZ3RoPSIxMDUiIHg9Ijc0OSIgeT0iMjY5LjIxODgiPnJhdGluZzogSW50ZWdlcjwvdGV4dD48bGluZSBzdHlsZT0ic3Ryb2tlOiMxODE4MTg7c3Ryb2tlLXdpZHRoOjAuNTsiIHgxPSI3MzAiIHgyPSI4NTkiIHkxPSIyNzQuOTY4OCIgeTI9IjI3NC45Njg4Ii8+PC9nPjwhLS1jbGFzcyBVc2VyLS0+PGcgaWQ9ImVsZW1fVXNlciI+PHJlY3QgZmlsbD0iI0YxRjFGMSIgaGVpZ2h0PSI0OCIgaWQ9IlVzZXIiIHJ4PSIyLjUiIHJ5PSIyLjUiIHN0eWxlPSJzdHJva2U6IzE4MTgxODtzdHJva2Utd2lkdGg6MC41OyIgd2lkdGg9IjYwIiB4PSI4OTUuNSIgeT0iMjIwIi8+PGVsbGlwc2UgY3g9IjkxMC41IiBjeT0iMjM2IiBmaWxsPSIjQUREMUIyIiByeD0iMTEiIHJ5PSIxMSIgc3R5bGU9InN0cm9rZTojMTgxODE4O3N0cm9rZS13aWR0aDoxLjA7Ii8+PHBhdGggZD0iTTkwOC4xMjUsMjQwLjI1IEw5MDguMTI1LDI0MiBMOTEzLjA2MjUsMjQyIEw5MTMuMDYyNSwyNDAuMjUgTDkwOC4xMjUsMjQwLjI1IFogTTkwOC44MTI1LDI0MC45Mzc1IFE5MDguODEyNSwyNDAuOTM3NSA5MDguODEyNSwyMzEuNzUgTDkwNy4wNjI1LDIzMS43NSBROTA3LjA2MjUsMjMxLjc1IDkwNy4wNjI1LDI0MC45Mzc1IEw5MDguODEyNSwyNDAuOTM3NSBaIE05MTIuMzc1LDI0MC45Mzc1IEw5MTQuMTI1LDI0MC45Mzc1IFE5MTQuMTI1LDI0MC45Mzc1IDkxNC4xMjUsMjM4LjEyNSBMOTEyLjM3NSwyMzguMTI1IFE5MTIuMzc1LDIzOC4xMjUgOTEyLjM3NSwyNDAuOTM3NSBaIE05MTIuMzc1LDIzMS43NSBROTEyLjM3NSwyMzEuNzUgOTEyLjM3NSwyMzQuNTYyNSBMOTE0LjEyNSwyMzQuNTYyNSBROTE0LjEyNSwyMzQuNTYyNSA5MTQuMTI1LDIzMS43NSBMOTEyLjM3NSwyMzEuNzUgWiBNOTA4LjEyNSwyMzIuNDM3NSBMOTEzLjA2MjUsMjMyLjQzNzUgTDkxMy4wNjI1LDIzMC42ODc1IEw5MDguMTI1LDIzMC42ODc1IEw5MDguMTI1LDIzMi40Mzc1IFogIiBmaWxsPSIjMDAwMDAwIi8+PHRleHQgZmlsbD0iIzAwMDAwMCIgZm9udC1mYW1pbHk9InNhbnMtc2VyaWYiIGZvbnQtc2l6ZT0iMTQiIGxlbmd0aEFkanVzdD0ic3BhY2luZyIgdGV4dExlbmd0aD0iMjgiIHg9IjkyNC41IiB5PSIyNDEuNzQyMiI+VXNlcjwvdGV4dD48bGluZSBzdHlsZT0ic3Ryb2tlOiMxODE4MTg7c3Ryb2tlLXdpZHRoOjAuNTsiIHgxPSI4OTYuNSIgeDI9Ijk1NC41IiB5MT0iMjUyIiB5Mj0iMjUyIi8+PGxpbmUgc3R5bGU9InN0cm9rZTojMTgxODE4O3N0cm9rZS13aWR0aDowLjU7IiB4MT0iODk2LjUiIHgyPSI5NTQuNSIgeTE9IjI2MCIgeTI9IjI2MCIvPjwvZz48IS0tbGluayBTcGVjaWFsaXR5IHRvIERvY3Rvci0tPjxnIGlkPSJsaW5rX1NwZWNpYWxpdHlfRG9jdG9yIj48cGF0aCBjb2RlTGluZT0iNjUiIGQ9Ik0xNDguMjUsMjk4LjEgQzE1NS4zNSwzMDMuMjMgMTYyLjUyLDMwOC4yOCAxNjkuNSwzMTMgQzIyOC4xNSwzNTIuNjQgMjk2LjMyLDM5My43IDM1MC4xMSw0MjUgIiBmaWxsPSJub25lIiBpZD0iU3BlY2lhbGl0eS10by1Eb2N0b3IiIHN0eWxlPSJzdHJva2U6IzE4MTgxODtzdHJva2Utd2lkdGg6MS4wOyIvPjxsaW5lIHN0eWxlPSJzdHJva2U6IzE4MTgxODtzdHJva2Utd2lkdGg6MS4wOyIgeDE9IjM1MC4zNTE1IiB4Mj0iMzYwLjI4MjYiIHkxPSI0MjUuMTQzMyIgeTI9IjQyMy45NzExIi8+PGxpbmUgc3R5bGU9InN0cm9rZTojMTgxODE4O3N0cm9rZS13aWR0aDoxLjA7IiB4MT0iMzUwLjM1MTUiIHgyPSIzNTQuMjU3NCIgeTE9IjQyNS4xNDMzIiB5Mj0iNDM0LjM0ODkiLz48bGluZSBzdHlsZT0ic3Ryb2tlOiMxODE4MTg7c3Ryb2tlLXdpZHRoOjEuMDsiIHgxPSIzNTAuMzUxNSIgeDI9IjM1Ny4yNyIgeTE9IjQyNS4xNDMzIiB5Mj0iNDI5LjE2Ii8+PGVsbGlwc2UgY3g9IjM0NS4xNjI2IiBjeT0iNDIyLjEzMDciIGZpbGw9Im5vbmUiIHJ4PSI0IiByeT0iNCIgc3R5bGU9InN0cm9rZTojMTgxODE4O3N0cm9rZS13aWR0aDoxLjA7Ii8+PC9nPjwhLS1saW5rIERvY3RvclNjaGVkdWxlIHRvIERvY3Rvci0tPjxnIGlkPSJsaW5rX0RvY3RvclNjaGVkdWxlX0RvY3RvciI+PHBhdGggY29kZUxpbmU9IjY2IiBkPSJNMzAyLjA1LDI5MC41OCBDMzE4LjUzLDMxMi4zMiAzMzkuMDYsMzM5LjQgMzU5LjM1LDM2Ni4xNyAiIGZpbGw9Im5vbmUiIGlkPSJEb2N0b3JTY2hlZHVsZS10by1Eb2N0b3IiIHN0eWxlPSJzdHJva2U6IzE4MTgxODtzdHJva2Utd2lkdGg6MS4wOyIvPjxsaW5lIHN0eWxlPSJzdHJva2U6IzE4MTgxODtzdHJva2Utd2lkdGg6MS4wOyIgeDE9IjM1OS4zODgiIHgyPSIzNjkuMDAxOSIgeTE9IjM2Ni4yMTQxIiB5Mj0iMzY4Ljk2NiIvPjxsaW5lIHN0eWxlPSJzdHJva2U6IzE4MTgxODtzdHJva2Utd2lkdGg6MS4wOyIgeDE9IjM1OS4zODgiIHgyPSIzNTkuNDM4MSIgeTE9IjM2Ni4yMTQxIiB5Mj0iMzc2LjIxNCIvPjxsaW5lIHN0eWxlPSJzdHJva2U6IzE4MTgxODtzdHJva2Utd2lkdGg6MS4wOyIgeDE9IjM1OS4zODgiIHgyPSIzNjQuMjIiIHkxPSIzNjYuMjE0MSIgeTI9IjM3Mi41OSIvPjxlbGxpcHNlIGN4PSIzNTUuNzY0MSIgY3k9IjM2MS40MzIyIiBmaWxsPSJub25lIiByeD0iNCIgcnk9IjQiIHN0eWxlPSJzdHJva2U6IzE4MTgxODtzdHJva2Utd2lkdGg6MS4wOyIvPjwvZz48IS0tbGluayBQcm9maWxlIHRvIFVzZXItLT48ZyBpZD0ibGlua19Qcm9maWxlX1VzZXIiPjxwYXRoIGNvZGVMaW5lPSI2NyIgZD0iTTkyNS41LDExNS4zMyBDOTI1LjUsMTQ2LjU3IDkyNS41LDE4NC45NiA5MjUuNSwyMTEuNDQgIiBmaWxsPSJub25lIiBpZD0iUHJvZmlsZS10by1Vc2VyIiBzdHlsZT0ic3Ryb2tlOiMxODE4MTg7c3Ryb2tlLXdpZHRoOjEuMDsiLz48bGluZSBzdHlsZT0ic3Ryb2tlOiMxODE4MTg7c3Ryb2tlLXdpZHRoOjEuMDsiIHgxPSI5MjUuNSIgeDI9IjkzMS41IiB5MT0iMjExLjU5IiB5Mj0iMjE5LjU5Ii8+PGxpbmUgc3R5bGU9InN0cm9rZTojMTgxODE4O3N0cm9rZS13aWR0aDoxLjA7IiB4MT0iOTI1LjUiIHgyPSI5MTkuNSIgeTE9IjIxMS41OSIgeTI9IjIxOS41OSIvPjxsaW5lIHN0eWxlPSJzdHJva2U6IzE4MTgxODtzdHJva2Utd2lkdGg6MS4wOyIgeDE9IjkyNS41IiB4Mj0iOTI1LjUiIHkxPSIyMTEuNTkiIHkyPSIyMTkuNTkiLz48ZWxsaXBzZSBjeD0iOTI1LjUiIGN5PSIyMDUuNTkiIGZpbGw9Im5vbmUiIHJ4PSI0IiByeT0iNCIgc3R5bGU9InN0cm9rZTojMTgxODE4O3N0cm9rZS13aWR0aDoxLjA7Ii8+PC9nPjwhLS1saW5rIEFwcG9pbnRtZW50IHRvIERvY3Rvci0tPjxnIGlkPSJsaW5rX0FwcG9pbnRtZW50X0RvY3RvciI+PHBhdGggY29kZUxpbmU9IjY4IiBkPSJNNDQ0LjUsMzEzLjE3IEM0NDQuNSwzMjkuMzkgNDQ0LjUsMzQ3LjE0IDQ0NC41LDM2NC44ICIgZmlsbD0ibm9uZSIgaWQ9IkFwcG9pbnRtZW50LXRvLURvY3RvciIgc3R5bGU9InN0cm9rZTojMTgxODE4O3N0cm9rZS13aWR0aDoxLjA7Ii8+PGxpbmUgc3R5bGU9InN0cm9rZTojMTgxODE4O3N0cm9rZS13aWR0aDoxLjA7IiB4MT0iNDQ0LjUiIHgyPSI0NTAuNSIgeTE9IjM2NC45IiB5Mj0iMzcyLjkiLz48bGluZSBzdHlsZT0ic3Ryb2tlOiMxODE4MTg7c3Ryb2tlLXdpZHRoOjEuMDsiIHgxPSI0NDQuNSIgeDI9IjQzOC41IiB5MT0iMzY0LjkiIHkyPSIzNzIuOSIvPjxsaW5lIHN0eWxlPSJzdHJva2U6IzE4MTgxODtzdHJva2Utd2lkdGg6MS4wOyIgeDE9IjQ0NC41IiB4Mj0iNDQ0LjUiIHkxPSIzNjQuOSIgeTI9IjM3Mi45Ii8+PGVsbGlwc2UgY3g9IjQ0NC41IiBjeT0iMzU4LjkiIGZpbGw9Im5vbmUiIHJ4PSI0IiByeT0iNCIgc3R5bGU9InN0cm9rZTojMTgxODE4O3N0cm9rZS13aWR0aDoxLjA7Ii8+PC9nPjwhLS1saW5rIFBheW1lbnQgdG8gQXBwb2ludG1lbnQtLT48ZyBpZD0ibGlua19QYXltZW50X0FwcG9pbnRtZW50Ij48cGF0aCBjb2RlTGluZT0iNjkiIGQ9Ik00NDQuNSwxMDcuNjcgQzQ0NC41LDEyNS41MyA0NDQuNSwxNDYuNSA0NDQuNSwxNjYuNTMgIiBmaWxsPSJub25lIiBpZD0iUGF5bWVudC10by1BcHBvaW50bWVudCIgc3R5bGU9InN0cm9rZTojMTgxODE4O3N0cm9rZS13aWR0aDoxLjA7Ii8+PGxpbmUgc3R5bGU9InN0cm9rZTojMTgxODE4O3N0cm9rZS13aWR0aDoxLjA7IiB4MT0iNDQ0LjUiIHgyPSI0NTAuNSIgeTE9IjE2Ni43NSIgeTI9IjE3NC43NSIvPjxsaW5lIHN0eWxlPSJzdHJva2U6IzE4MTgxODtzdHJva2Utd2lkdGg6MS4wOyIgeDE9IjQ0NC41IiB4Mj0iNDM4LjUiIHkxPSIxNjYuNzUiIHkyPSIxNzQuNzUiLz48bGluZSBzdHlsZT0ic3Ryb2tlOiMxODE4MTg7c3Ryb2tlLXdpZHRoOjEuMDsiIHgxPSI0NDQuNSIgeDI9IjQ0NC41IiB5MT0iMTY2Ljc1IiB5Mj0iMTc0Ljc1Ii8+PGVsbGlwc2UgY3g9IjQ0NC41IiBjeT0iMTYwLjc1IiBmaWxsPSJub25lIiByeD0iNCIgcnk9IjQiIHN0eWxlPSJzdHJva2U6IzE4MTgxODtzdHJva2Utd2lkdGg6MS4wOyIvPjwvZz48IS0tbGluayBDb25zdWx0YXRpb24gdG8gRG9jdG9yLS0+PGcgaWQ9ImxpbmtfQ29uc3VsdGF0aW9uX0RvY3RvciI+PHBhdGggY29kZUxpbmU9IjcwIiBkPSJNNTcyLjUsMzA1Ljc0IEM1NTguNzEsMzI0LjM1IDU0My4wNywzNDUuNDYgNTI3LjU4LDM2Ni4zNiAiIGZpbGw9Im5vbmUiIGlkPSJDb25zdWx0YXRpb24tdG8tRG9jdG9yIiBzdHlsZT0ic3Ryb2tlOiMxODE4MTg7c3Ryb2tlLXdpZHRoOjEuMDsiLz48bGluZSBzdHlsZT0ic3Ryb2tlOiMxODE4MTg7c3Ryb2tlLXdpZHRoOjEuMDsiIHgxPSI1MjcuNTM4NyIgeDI9IjUyNy42MDMxIiB5MT0iMzY2LjQwOTMiIHkyPSIzNzYuNDA5MSIvPjxsaW5lIHN0eWxlPSJzdHJva2U6IzE4MTgxODtzdHJva2Utd2lkdGg6MS4wOyIgeDE9IjUyNy41Mzg3IiB4Mj0iNTE3Ljk1NjkiIHkxPSIzNjYuNDA5MyIgeTI9IjM2OS4yNzA5Ii8+PGxpbmUgc3R5bGU9InN0cm9rZTojMTgxODE4O3N0cm9rZS13aWR0aDoxLjA7IiB4MT0iNTI3LjUzODciIHgyPSI1MjIuNzgiIHkxPSIzNjYuNDA5MyIgeTI9IjM3Mi44NCIvPjxlbGxpcHNlIGN4PSI1MzEuMTA3OCIgY3k9IjM2MS41ODYyIiBmaWxsPSJub25lIiByeD0iNCIgcnk9IjQiIHN0eWxlPSJzdHJva2U6IzE4MTgxODtzdHJva2Utd2lkdGg6MS4wOyIvPjwvZz48IS0tbGluayBSZXZpZXcgdG8gRG9jdG9yLS0+PGcgaWQ9ImxpbmtfUmV2aWV3X0RvY3RvciI+PHBhdGggY29kZUxpbmU9IjcxIiBkPSJNNzUwLjEyLDI4My4xNiBDNzM3Ljg2LDI5My4yIDcyNC4zOCwzMDMuNzkgNzExLjUsMzEzIEM2NTUuODgsMzUyLjc2IDU5MC43LDM5My4yNyA1MzguNjYsNDI0LjI2ICIgZmlsbD0ibm9uZSIgaWQ9IlJldmlldy10by1Eb2N0b3IiIHN0eWxlPSJzdHJva2U6IzE4MTgxODtzdHJva2Utd2lkdGg6MS4wOyIvPjxsaW5lIHN0eWxlPSJzdHJva2U6IzE4MTgxODtzdHJva2Utd2lkdGg6MS4wOyIgeDE9IjUzOC42MiIgeDI9IjUzNC44MDE3IiB5MT0iNDI0LjI5NzciIHkyPSI0MzMuNTQiLz48bGluZSBzdHlsZT0ic3Ryb2tlOiMxODE4MTg7c3Ryb2tlLXdpZHRoOjEuMDsiIHgxPSI1MzguNjIiIHgyPSI1MjguNjc4MyIgeTE9IjQyNC4yOTc3IiB5Mj0iNDIzLjIyIi8+PGxpbmUgc3R5bGU9InN0cm9rZTojMTgxODE4O3N0cm9rZS13aWR0aDoxLjA7IiB4MT0iNTM4LjYyIiB4Mj0iNTMxLjc0IiB5MT0iNDI0LjI5NzciIHkyPSI0MjguMzgiLz48ZWxsaXBzZSBjeD0iNTQzLjc4IiBjeT0iNDIxLjIzNTkiIGZpbGw9Im5vbmUiIHJ4PSI0IiByeT0iNCIgc3R5bGU9InN0cm9rZTojMTgxODE4O3N0cm9rZS13aWR0aDoxLjA7Ii8+PC9nPjwhLS1TUkM9W1pMRERSeUNXM0J0ZEx4M3ByMy1Hc3pIa3FnR1RmZHdTOG1mRVdXZU9XUkVzZ19SVkh6QXFXZEpUVFk3QW10eEZwcE9GNGNmYldKclJLZElTQW95cUNBNXYyNE1IT0lpN0dkNFQwTk9nNjdqYWJYaWVzT2d5aWlxMDFEcXI2UTBDUnNCOFFfeVAwMGIxVUVMOGVJdFA2V3ZLVjRySzVZVzhfSnM1N21XUjN0YUM3MW51MUxScVdQUVcwSl9XZWtMYzJwd0JoTTRJTEFGTWtFelNUTkVwREw5YWtSVFVVbEdKcUxIUXNMdDlEaWt0MFZBU09heDlOWkpvVXVQTmVXTlBuVC1wU1NjRjVUUkw3YzJOVHZZdWZ1Zkt0dlByRkMtNmhLb1hnUzJ4bnJmVGNNeXd3NWdxVUdFdmIxdjJvMzBILVF4MExFNzlFTElNMzVZd3JhLUhTbjdGdU5USVM3SDFOU3hsRjZ1cmNBSUhTRzBYZHUzaWFmN1NrRUo3SER5MGpJV3AxVkJTMVl4d1NMS2dsLTg2RXFsdGtVVGVHd1RacUo3dEx1RU5zbHpicUZhXzd5Q0lGWEppSHFjMWZkVU9DNW1NQXdheFVRSXA2UHg2eEllY0l2UFVOVFBabTNPWHFnSlpwMkI3NVd6TzRiSGFfS2FwbmxlSncxaTBdLS0+PC9nPjwvc3ZnPg==;" vertex="1" parent="1">
            <mxGeometry x="-827" width="775.47" height="460" as="geometry" />
          </mxCell>
        </UserObject>
        <mxCell id="9iOiu2AejandBRwTWpK1-34" style="edgeStyle=none;rounded=0;orthogonalLoop=1;jettySize=auto;html=1;exitX=0.5;exitY=0;exitDx=0;exitDy=0;" edge="1" parent="1" source="9iOiu2AejandBRwTWpK1-2" target="9iOiu2AejandBRwTWpK1-22">
          <mxGeometry relative="1" as="geometry" />
        </mxCell>
        <mxCell id="9iOiu2AejandBRwTWpK1-35" style="edgeStyle=none;rounded=0;orthogonalLoop=1;jettySize=auto;html=1;exitX=0.5;exitY=0;exitDx=0;exitDy=0;entryX=0.5;entryY=1;entryDx=0;entryDy=0;" edge="1" parent="1" source="9iOiu2AejandBRwTWpK1-2" target="9iOiu2AejandBRwTWpK1-33">
          <mxGeometry relative="1" as="geometry" />
        </mxCell>
        <mxCell id="9iOiu2AejandBRwTWpK1-36" style="edgeStyle=none;rounded=0;orthogonalLoop=1;jettySize=auto;html=1;exitX=0.5;exitY=0;exitDx=0;exitDy=0;entryX=0.5;entryY=1;entryDx=0;entryDy=0;" edge="1" parent="1" source="9iOiu2AejandBRwTWpK1-2" target="9iOiu2AejandBRwTWpK1-32">
          <mxGeometry relative="1" as="geometry" />
        </mxCell>
        <mxCell id="9iOiu2AejandBRwTWpK1-37" style="edgeStyle=none;rounded=0;orthogonalLoop=1;jettySize=auto;html=1;exitX=0.5;exitY=0;exitDx=0;exitDy=0;" edge="1" parent="1" source="9iOiu2AejandBRwTWpK1-2" target="9iOiu2AejandBRwTWpK1-31">
          <mxGeometry relative="1" as="geometry" />
        </mxCell>
        <mxCell id="9iOiu2AejandBRwTWpK1-38" style="edgeStyle=none;rounded=0;orthogonalLoop=1;jettySize=auto;html=1;exitX=0.5;exitY=0;exitDx=0;exitDy=0;entryX=0;entryY=1;entryDx=0;entryDy=0;" edge="1" parent="1" source="9iOiu2AejandBRwTWpK1-2" target="9iOiu2AejandBRwTWpK1-30">
          <mxGeometry relative="1" as="geometry" />
        </mxCell>
        <mxCell id="9iOiu2AejandBRwTWpK1-2" value="Speciality" style="rounded=0;whiteSpace=wrap;html=1;" vertex="1" parent="1">
          <mxGeometry x="-305" y="600" width="100" height="50" as="geometry" />
        </mxCell>
        <mxCell id="9iOiu2AejandBRwTWpK1-11" style="edgeStyle=none;rounded=0;orthogonalLoop=1;jettySize=auto;html=1;exitX=0.5;exitY=0;exitDx=0;exitDy=0;entryX=0.5;entryY=1;entryDx=0;entryDy=0;endArrow=none;endFill=0;startArrow=ERoneToMany;startFill=0;" edge="1" parent="1" source="9iOiu2AejandBRwTWpK1-3" target="9iOiu2AejandBRwTWpK1-2">
          <mxGeometry relative="1" as="geometry" />
        </mxCell>
        <mxCell id="9iOiu2AejandBRwTWpK1-12" style="edgeStyle=none;rounded=0;orthogonalLoop=1;jettySize=auto;html=1;exitX=0.691;exitY=1.04;exitDx=0;exitDy=0;startArrow=none;startFill=0;endArrow=ERoneToMany;endFill=0;exitPerimeter=0;" edge="1" parent="1" source="9iOiu2AejandBRwTWpK1-3" target="9iOiu2AejandBRwTWpK1-4">
          <mxGeometry relative="1" as="geometry" />
        </mxCell>
        <mxCell id="9iOiu2AejandBRwTWpK1-19" style="edgeStyle=orthogonalEdgeStyle;rounded=0;orthogonalLoop=1;jettySize=auto;html=1;exitX=0.5;exitY=1;exitDx=0;exitDy=0;entryX=1;entryY=0.5;entryDx=0;entryDy=0;endArrow=ERoneToMany;endFill=0;" edge="1" parent="1" source="9iOiu2AejandBRwTWpK1-3" target="9iOiu2AejandBRwTWpK1-5">
          <mxGeometry relative="1" as="geometry">
            <Array as="points">
              <mxPoint x="-285" y="770" />
              <mxPoint x="-285" y="1055" />
            </Array>
          </mxGeometry>
        </mxCell>
        <mxCell id="9iOiu2AejandBRwTWpK1-21" style="edgeStyle=orthogonalEdgeStyle;rounded=0;orthogonalLoop=1;jettySize=auto;html=1;exitX=0;exitY=0.5;exitDx=0;exitDy=0;entryX=1;entryY=0.5;entryDx=0;entryDy=0;endArrow=ERoneToMany;endFill=0;" edge="1" parent="1" source="9iOiu2AejandBRwTWpK1-3" target="9iOiu2AejandBRwTWpK1-18">
          <mxGeometry relative="1" as="geometry" />
        </mxCell>
        <mxCell id="9iOiu2AejandBRwTWpK1-48" style="edgeStyle=none;rounded=0;orthogonalLoop=1;jettySize=auto;html=1;exitX=1;exitY=0.5;exitDx=0;exitDy=0;entryX=0;entryY=1;entryDx=0;entryDy=0;" edge="1" parent="1" source="9iOiu2AejandBRwTWpK1-3" target="9iOiu2AejandBRwTWpK1-23">
          <mxGeometry relative="1" as="geometry" />
        </mxCell>
        <mxCell id="9iOiu2AejandBRwTWpK1-49" style="edgeStyle=none;rounded=0;orthogonalLoop=1;jettySize=auto;html=1;exitX=1;exitY=0.5;exitDx=0;exitDy=0;entryX=0;entryY=0.5;entryDx=0;entryDy=0;" edge="1" parent="1" source="9iOiu2AejandBRwTWpK1-3" target="9iOiu2AejandBRwTWpK1-29">
          <mxGeometry relative="1" as="geometry" />
        </mxCell>
        <mxCell id="9iOiu2AejandBRwTWpK1-50" style="edgeStyle=none;rounded=0;orthogonalLoop=1;jettySize=auto;html=1;exitX=1;exitY=0.5;exitDx=0;exitDy=0;entryX=0;entryY=0.5;entryDx=0;entryDy=0;" edge="1" parent="1" source="9iOiu2AejandBRwTWpK1-3" target="9iOiu2AejandBRwTWpK1-28">
          <mxGeometry relative="1" as="geometry" />
        </mxCell>
        <mxCell id="9iOiu2AejandBRwTWpK1-51" style="edgeStyle=none;rounded=0;orthogonalLoop=1;jettySize=auto;html=1;exitX=1;exitY=0.5;exitDx=0;exitDy=0;entryX=0;entryY=0.5;entryDx=0;entryDy=0;" edge="1" parent="1" source="9iOiu2AejandBRwTWpK1-3" target="9iOiu2AejandBRwTWpK1-39">
          <mxGeometry relative="1" as="geometry" />
        </mxCell>
        <mxCell id="9iOiu2AejandBRwTWpK1-52" style="edgeStyle=none;rounded=0;orthogonalLoop=1;jettySize=auto;html=1;exitX=1;exitY=0.5;exitDx=0;exitDy=0;" edge="1" parent="1" source="9iOiu2AejandBRwTWpK1-3" target="9iOiu2AejandBRwTWpK1-41">
          <mxGeometry relative="1" as="geometry" />
        </mxCell>
        <mxCell id="9iOiu2AejandBRwTWpK1-53" style="edgeStyle=none;rounded=0;orthogonalLoop=1;jettySize=auto;html=1;exitX=1;exitY=0.5;exitDx=0;exitDy=0;" edge="1" parent="1" source="9iOiu2AejandBRwTWpK1-3" target="9iOiu2AejandBRwTWpK1-42">
          <mxGeometry relative="1" as="geometry" />
        </mxCell>
        <mxCell id="9iOiu2AejandBRwTWpK1-54" style="edgeStyle=none;rounded=0;orthogonalLoop=1;jettySize=auto;html=1;exitX=1;exitY=0.5;exitDx=0;exitDy=0;entryX=0;entryY=0.5;entryDx=0;entryDy=0;" edge="1" parent="1" source="9iOiu2AejandBRwTWpK1-3" target="9iOiu2AejandBRwTWpK1-43">
          <mxGeometry relative="1" as="geometry" />
        </mxCell>
        <mxCell id="9iOiu2AejandBRwTWpK1-55" style="edgeStyle=none;rounded=0;orthogonalLoop=1;jettySize=auto;html=1;exitX=1;exitY=0.5;exitDx=0;exitDy=0;entryX=0;entryY=0.5;entryDx=0;entryDy=0;" edge="1" parent="1" source="9iOiu2AejandBRwTWpK1-3" target="9iOiu2AejandBRwTWpK1-44">
          <mxGeometry relative="1" as="geometry" />
        </mxCell>
        <mxCell id="9iOiu2AejandBRwTWpK1-56" style="edgeStyle=none;rounded=0;orthogonalLoop=1;jettySize=auto;html=1;exitX=1;exitY=0.5;exitDx=0;exitDy=0;entryX=0;entryY=0.5;entryDx=0;entryDy=0;" edge="1" parent="1" source="9iOiu2AejandBRwTWpK1-3" target="9iOiu2AejandBRwTWpK1-45">
          <mxGeometry relative="1" as="geometry" />
        </mxCell>
        <mxCell id="9iOiu2AejandBRwTWpK1-57" style="edgeStyle=none;rounded=0;orthogonalLoop=1;jettySize=auto;html=1;exitX=1;exitY=0.5;exitDx=0;exitDy=0;entryX=0;entryY=0.5;entryDx=0;entryDy=0;" edge="1" parent="1" source="9iOiu2AejandBRwTWpK1-3" target="9iOiu2AejandBRwTWpK1-46">
          <mxGeometry relative="1" as="geometry" />
        </mxCell>
        <mxCell id="9iOiu2AejandBRwTWpK1-58" style="edgeStyle=none;rounded=0;orthogonalLoop=1;jettySize=auto;html=1;exitX=1;exitY=0.5;exitDx=0;exitDy=0;entryX=0;entryY=0.5;entryDx=0;entryDy=0;" edge="1" parent="1" source="9iOiu2AejandBRwTWpK1-3" target="9iOiu2AejandBRwTWpK1-47">
          <mxGeometry relative="1" as="geometry" />
        </mxCell>
        <mxCell id="9iOiu2AejandBRwTWpK1-3" value="Doctor" style="rounded=0;whiteSpace=wrap;html=1;" vertex="1" parent="1">
          <mxGeometry x="-310" y="720" width="110" height="50" as="geometry" />
        </mxCell>
        <mxCell id="9iOiu2AejandBRwTWpK1-63" style="edgeStyle=none;rounded=0;orthogonalLoop=1;jettySize=auto;html=1;exitX=0.5;exitY=1;exitDx=0;exitDy=0;entryX=0;entryY=0;entryDx=0;entryDy=0;" edge="1" parent="1" source="9iOiu2AejandBRwTWpK1-4" target="9iOiu2AejandBRwTWpK1-59">
          <mxGeometry relative="1" as="geometry" />
        </mxCell>
        <mxCell id="9iOiu2AejandBRwTWpK1-64" style="edgeStyle=none;rounded=0;orthogonalLoop=1;jettySize=auto;html=1;exitX=0.5;exitY=1;exitDx=0;exitDy=0;entryX=0;entryY=0;entryDx=0;entryDy=0;" edge="1" parent="1" source="9iOiu2AejandBRwTWpK1-4" target="9iOiu2AejandBRwTWpK1-60">
          <mxGeometry relative="1" as="geometry" />
        </mxCell>
        <mxCell id="9iOiu2AejandBRwTWpK1-4" value="DoctorSchedule" style="rounded=0;whiteSpace=wrap;html=1;" vertex="1" parent="1">
          <mxGeometry x="-280" y="910" width="100" height="55" as="geometry" />
        </mxCell>
        <mxCell id="9iOiu2AejandBRwTWpK1-84" style="edgeStyle=none;rounded=0;orthogonalLoop=1;jettySize=auto;html=1;exitX=0;exitY=0.5;exitDx=0;exitDy=0;entryX=1;entryY=0.5;entryDx=0;entryDy=0;" edge="1" parent="1" source="9iOiu2AejandBRwTWpK1-5" target="9iOiu2AejandBRwTWpK1-81">
          <mxGeometry relative="1" as="geometry" />
        </mxCell>
        <mxCell id="9iOiu2AejandBRwTWpK1-85" style="edgeStyle=none;rounded=0;orthogonalLoop=1;jettySize=auto;html=1;exitX=0;exitY=0.5;exitDx=0;exitDy=0;entryX=1;entryY=0.5;entryDx=0;entryDy=0;" edge="1" parent="1" source="9iOiu2AejandBRwTWpK1-5" target="9iOiu2AejandBRwTWpK1-80">
          <mxGeometry relative="1" as="geometry" />
        </mxCell>
        <mxCell id="9iOiu2AejandBRwTWpK1-86" style="edgeStyle=none;rounded=0;orthogonalLoop=1;jettySize=auto;html=1;exitX=0;exitY=0.5;exitDx=0;exitDy=0;" edge="1" parent="1" source="9iOiu2AejandBRwTWpK1-5" target="9iOiu2AejandBRwTWpK1-79">
          <mxGeometry relative="1" as="geometry" />
        </mxCell>
        <mxCell id="9iOiu2AejandBRwTWpK1-88" style="edgeStyle=none;rounded=0;orthogonalLoop=1;jettySize=auto;html=1;exitX=0;exitY=0.5;exitDx=0;exitDy=0;entryX=1;entryY=0;entryDx=0;entryDy=0;" edge="1" parent="1" source="9iOiu2AejandBRwTWpK1-5" target="9iOiu2AejandBRwTWpK1-66">
          <mxGeometry relative="1" as="geometry" />
        </mxCell>
        <mxCell id="9iOiu2AejandBRwTWpK1-5" value="Appointment" style="rounded=0;whiteSpace=wrap;html=1;" vertex="1" parent="1">
          <mxGeometry x="-495" y="1030" width="100" height="50" as="geometry" />
        </mxCell>
        <mxCell id="9iOiu2AejandBRwTWpK1-10" style="rounded=0;orthogonalLoop=1;jettySize=auto;html=1;exitX=0.5;exitY=0;exitDx=0;exitDy=0;entryX=0.5;entryY=1;entryDx=0;entryDy=0;endArrow=none;endFill=0;" edge="1" parent="1" source="9iOiu2AejandBRwTWpK1-7" target="9iOiu2AejandBRwTWpK1-8">
          <mxGeometry relative="1" as="geometry" />
        </mxCell>
        <mxCell id="9iOiu2AejandBRwTWpK1-16" style="edgeStyle=none;rounded=0;orthogonalLoop=1;jettySize=auto;html=1;exitX=0.5;exitY=1;exitDx=0;exitDy=0;endArrow=ERoneToMany;endFill=0;" edge="1" parent="1" source="9iOiu2AejandBRwTWpK1-7" target="9iOiu2AejandBRwTWpK1-5">
          <mxGeometry relative="1" as="geometry" />
        </mxCell>
        <mxCell id="9iOiu2AejandBRwTWpK1-89" style="edgeStyle=none;rounded=0;orthogonalLoop=1;jettySize=auto;html=1;exitX=0;exitY=0.5;exitDx=0;exitDy=0;entryX=1;entryY=1;entryDx=0;entryDy=0;" edge="1" parent="1" source="9iOiu2AejandBRwTWpK1-7" target="9iOiu2AejandBRwTWpK1-74">
          <mxGeometry relative="1" as="geometry" />
        </mxCell>
        <mxCell id="9iOiu2AejandBRwTWpK1-90" style="edgeStyle=none;rounded=0;orthogonalLoop=1;jettySize=auto;html=1;exitX=0;exitY=0.5;exitDx=0;exitDy=0;entryX=1;entryY=0.5;entryDx=0;entryDy=0;" edge="1" parent="1" source="9iOiu2AejandBRwTWpK1-7" target="9iOiu2AejandBRwTWpK1-75">
          <mxGeometry relative="1" as="geometry" />
        </mxCell>
        <mxCell id="9iOiu2AejandBRwTWpK1-91" style="edgeStyle=none;rounded=0;orthogonalLoop=1;jettySize=auto;html=1;exitX=0;exitY=0.5;exitDx=0;exitDy=0;entryX=1;entryY=0.5;entryDx=0;entryDy=0;" edge="1" parent="1" source="9iOiu2AejandBRwTWpK1-7" target="9iOiu2AejandBRwTWpK1-76">
          <mxGeometry relative="1" as="geometry" />
        </mxCell>
        <mxCell id="9iOiu2AejandBRwTWpK1-7" value="patient" style="rounded=0;whiteSpace=wrap;html=1;" vertex="1" parent="1">
          <mxGeometry x="-495" y="900" width="100" height="50" as="geometry" />
        </mxCell>
        <mxCell id="9iOiu2AejandBRwTWpK1-20" style="edgeStyle=none;rounded=0;orthogonalLoop=1;jettySize=auto;html=1;exitX=0.5;exitY=0;exitDx=0;exitDy=0;entryX=0.5;entryY=1;entryDx=0;entryDy=0;endArrow=ERoneToMany;endFill=0;" edge="1" parent="1" source="9iOiu2AejandBRwTWpK1-8" target="9iOiu2AejandBRwTWpK1-18">
          <mxGeometry relative="1" as="geometry" />
        </mxCell>
        <mxCell id="9iOiu2AejandBRwTWpK1-93" style="edgeStyle=none;rounded=0;orthogonalLoop=1;jettySize=auto;html=1;exitX=0;exitY=0.5;exitDx=0;exitDy=0;entryX=1;entryY=1;entryDx=0;entryDy=0;" edge="1" parent="1" source="9iOiu2AejandBRwTWpK1-8" target="9iOiu2AejandBRwTWpK1-68">
          <mxGeometry relative="1" as="geometry" />
        </mxCell>
        <mxCell id="9iOiu2AejandBRwTWpK1-95" style="edgeStyle=none;rounded=0;orthogonalLoop=1;jettySize=auto;html=1;exitX=0;exitY=0.5;exitDx=0;exitDy=0;entryX=1;entryY=0.5;entryDx=0;entryDy=0;" edge="1" parent="1" source="9iOiu2AejandBRwTWpK1-8" target="9iOiu2AejandBRwTWpK1-70">
          <mxGeometry relative="1" as="geometry" />
        </mxCell>
        <mxCell id="9iOiu2AejandBRwTWpK1-96" style="edgeStyle=none;rounded=0;orthogonalLoop=1;jettySize=auto;html=1;exitX=0;exitY=0.5;exitDx=0;exitDy=0;" edge="1" parent="1" source="9iOiu2AejandBRwTWpK1-8" target="9iOiu2AejandBRwTWpK1-71">
          <mxGeometry relative="1" as="geometry" />
        </mxCell>
        <mxCell id="9iOiu2AejandBRwTWpK1-98" style="edgeStyle=none;rounded=0;orthogonalLoop=1;jettySize=auto;html=1;exitX=0;exitY=0.5;exitDx=0;exitDy=0;" edge="1" parent="1" source="9iOiu2AejandBRwTWpK1-8" target="9iOiu2AejandBRwTWpK1-73">
          <mxGeometry relative="1" as="geometry" />
        </mxCell>
        <mxCell id="9iOiu2AejandBRwTWpK1-8" value="user" style="rounded=0;whiteSpace=wrap;html=1;" vertex="1" parent="1">
          <mxGeometry x="-495" y="770" width="100" height="50" as="geometry" />
        </mxCell>
        <mxCell id="9iOiu2AejandBRwTWpK1-102" style="edgeStyle=none;rounded=0;orthogonalLoop=1;jettySize=auto;html=1;exitX=0.5;exitY=0;exitDx=0;exitDy=0;entryX=0.5;entryY=1;entryDx=0;entryDy=0;" edge="1" parent="1" source="9iOiu2AejandBRwTWpK1-18" target="9iOiu2AejandBRwTWpK1-99">
          <mxGeometry relative="1" as="geometry" />
        </mxCell>
        <mxCell id="9iOiu2AejandBRwTWpK1-103" style="edgeStyle=none;rounded=0;orthogonalLoop=1;jettySize=auto;html=1;exitX=0.5;exitY=0;exitDx=0;exitDy=0;" edge="1" parent="1" source="9iOiu2AejandBRwTWpK1-18" target="9iOiu2AejandBRwTWpK1-100">
          <mxGeometry relative="1" as="geometry" />
        </mxCell>
        <mxCell id="9iOiu2AejandBRwTWpK1-104" style="edgeStyle=none;rounded=0;orthogonalLoop=1;jettySize=auto;html=1;exitX=0.5;exitY=0;exitDx=0;exitDy=0;entryX=1;entryY=1;entryDx=0;entryDy=0;" edge="1" parent="1" source="9iOiu2AejandBRwTWpK1-18" target="9iOiu2AejandBRwTWpK1-101">
          <mxGeometry relative="1" as="geometry" />
        </mxCell>
        <mxCell id="9iOiu2AejandBRwTWpK1-18" value="review" style="rounded=0;whiteSpace=wrap;html=1;" vertex="1" parent="1">
          <mxGeometry x="-500" y="620" width="110" height="50" as="geometry" />
        </mxCell>
        <mxCell id="9iOiu2AejandBRwTWpK1-26" value="&lt;u&gt;id&lt;/u&gt;" style="ellipse;whiteSpace=wrap;html=1;" vertex="1" parent="1">
          <mxGeometry x="-140" y="980" width="70" height="40" as="geometry" />
        </mxCell>
        <mxCell id="9iOiu2AejandBRwTWpK1-28" value="image" style="ellipse;whiteSpace=wrap;html=1;" vertex="1" parent="1">
          <mxGeometry x="-120" y="662.5" width="70" height="40" as="geometry" />
        </mxCell>
        <mxCell id="9iOiu2AejandBRwTWpK1-30" value="description" style="ellipse;whiteSpace=wrap;html=1;" vertex="1" parent="1">
          <mxGeometry x="-200" y="530" width="70" height="40" as="geometry" />
        </mxCell>
        <mxCell id="9iOiu2AejandBRwTWpK1-31" value="image" style="ellipse;whiteSpace=wrap;html=1;" vertex="1" parent="1">
          <mxGeometry x="-230" y="500" width="70" height="40" as="geometry" />
        </mxCell>
        <mxCell id="9iOiu2AejandBRwTWpK1-32" value="slug" style="ellipse;whiteSpace=wrap;html=1;" vertex="1" parent="1">
          <mxGeometry x="-285" y="490" width="70" height="40" as="geometry" />
        </mxCell>
        <mxCell id="9iOiu2AejandBRwTWpK1-33" value="name" style="ellipse;whiteSpace=wrap;html=1;" vertex="1" parent="1">
          <mxGeometry x="-340" y="480" width="70" height="40" as="geometry" />
        </mxCell>
        <mxCell id="9iOiu2AejandBRwTWpK1-22" value="&lt;u&gt;id&lt;/u&gt;" style="ellipse;whiteSpace=wrap;html=1;" vertex="1" parent="1">
          <mxGeometry x="-380" y="500" width="70" height="40" as="geometry" />
        </mxCell>
        <mxCell id="9iOiu2AejandBRwTWpK1-39" value="degree" style="ellipse;whiteSpace=wrap;html=1;" vertex="1" parent="1">
          <mxGeometry x="-105" y="691.5" width="70" height="40" as="geometry" />
        </mxCell>
        <mxCell id="9iOiu2AejandBRwTWpK1-41" value="experience" style="ellipse;whiteSpace=wrap;html=1;" vertex="1" parent="1">
          <mxGeometry x="-90" y="722.5" width="70" height="40" as="geometry" />
        </mxCell>
        <mxCell id="9iOiu2AejandBRwTWpK1-42" value="chamber" style="ellipse;whiteSpace=wrap;html=1;" vertex="1" parent="1">
          <mxGeometry x="-70" y="752.5" width="70" height="40" as="geometry" />
        </mxCell>
        <mxCell id="9iOiu2AejandBRwTWpK1-43" value="fee" style="ellipse;whiteSpace=wrap;html=1;" vertex="1" parent="1">
          <mxGeometry x="-70" y="780.5" width="70" height="40" as="geometry" />
        </mxCell>
        <mxCell id="9iOiu2AejandBRwTWpK1-44" value="followup_fee" style="ellipse;whiteSpace=wrap;html=1;" vertex="1" parent="1">
          <mxGeometry x="-80" y="807.5" width="80" height="40" as="geometry" />
        </mxCell>
        <mxCell id="9iOiu2AejandBRwTWpK1-45" value="bmdc" style="ellipse;whiteSpace=wrap;html=1;" vertex="1" parent="1">
          <mxGeometry x="-90" y="837.5" width="80" height="40" as="geometry" />
        </mxCell>
        <mxCell id="9iOiu2AejandBRwTWpK1-46" value="description" style="ellipse;whiteSpace=wrap;html=1;" vertex="1" parent="1">
          <mxGeometry x="-95" y="870" width="80" height="40" as="geometry" />
        </mxCell>
        <mxCell id="9iOiu2AejandBRwTWpK1-47" value="zoom_link" style="ellipse;whiteSpace=wrap;html=1;" vertex="1" parent="1">
          <mxGeometry x="-105" y="900" width="80" height="40" as="geometry" />
        </mxCell>
        <mxCell id="9iOiu2AejandBRwTWpK1-59" value="day_of_week" style="ellipse;whiteSpace=wrap;html=1;" vertex="1" parent="1">
          <mxGeometry x="-165" y="1010" width="70" height="40" as="geometry" />
        </mxCell>
        <mxCell id="9iOiu2AejandBRwTWpK1-60" value="start_time" style="ellipse;whiteSpace=wrap;html=1;" vertex="1" parent="1">
          <mxGeometry x="-190" y="1035" width="70" height="40" as="geometry" />
        </mxCell>
        <mxCell id="9iOiu2AejandBRwTWpK1-61" value="end_time" style="ellipse;whiteSpace=wrap;html=1;" vertex="1" parent="1">
          <mxGeometry x="-235" y="1060" width="70" height="40" as="geometry" />
        </mxCell>
        <mxCell id="9iOiu2AejandBRwTWpK1-62" style="edgeStyle=none;rounded=0;orthogonalLoop=1;jettySize=auto;html=1;exitX=0.5;exitY=1;exitDx=0;exitDy=0;entryX=0.057;entryY=0.35;entryDx=0;entryDy=0;entryPerimeter=0;" edge="1" parent="1" source="9iOiu2AejandBRwTWpK1-4" target="9iOiu2AejandBRwTWpK1-26">
          <mxGeometry relative="1" as="geometry" />
        </mxCell>
        <mxCell id="9iOiu2AejandBRwTWpK1-65" style="edgeStyle=none;rounded=0;orthogonalLoop=1;jettySize=auto;html=1;exitX=0.5;exitY=1;exitDx=0;exitDy=0;entryX=0.214;entryY=0;entryDx=0;entryDy=0;entryPerimeter=0;" edge="1" parent="1" source="9iOiu2AejandBRwTWpK1-4" target="9iOiu2AejandBRwTWpK1-61">
          <mxGeometry relative="1" as="geometry" />
        </mxCell>
        <mxCell id="9iOiu2AejandBRwTWpK1-66" value="&lt;u&gt;id&lt;/u&gt;" style="ellipse;whiteSpace=wrap;html=1;" vertex="1" parent="1">
          <mxGeometry x="-580" y="1110" width="70" height="40" as="geometry" />
        </mxCell>
        <mxCell id="9iOiu2AejandBRwTWpK1-67" value="date" style="ellipse;whiteSpace=wrap;html=1;" vertex="1" parent="1">
          <mxGeometry x="-610" y="1090" width="70" height="40" as="geometry" />
        </mxCell>
        <mxCell id="9iOiu2AejandBRwTWpK1-68" value="&lt;u&gt;id&lt;/u&gt;" style="ellipse;whiteSpace=wrap;html=1;" vertex="1" parent="1">
          <mxGeometry x="-600" y="672.5" width="70" height="40" as="geometry" />
        </mxCell>
        <mxCell id="9iOiu2AejandBRwTWpK1-69" value="first_name" style="ellipse;whiteSpace=wrap;html=1;" vertex="1" parent="1">
          <mxGeometry x="-630" y="701.5" width="70" height="40" as="geometry" />
        </mxCell>
        <mxCell id="9iOiu2AejandBRwTWpK1-70" value="last_name" style="ellipse;whiteSpace=wrap;html=1;" vertex="1" parent="1">
          <mxGeometry x="-650" y="730" width="70" height="40" as="geometry" />
        </mxCell>
        <mxCell id="9iOiu2AejandBRwTWpK1-71" value="email" style="ellipse;whiteSpace=wrap;html=1;" vertex="1" parent="1">
          <mxGeometry x="-660" y="762.5" width="70" height="40" as="geometry" />
        </mxCell>
        <mxCell id="9iOiu2AejandBRwTWpK1-72" value="username" style="ellipse;whiteSpace=wrap;html=1;" vertex="1" parent="1">
          <mxGeometry x="-650" y="790.5" width="70" height="40" as="geometry" />
        </mxCell>
        <mxCell id="9iOiu2AejandBRwTWpK1-73" value="password" style="ellipse;whiteSpace=wrap;html=1;" vertex="1" parent="1">
          <mxGeometry x="-610" y="818.75" width="70" height="40" as="geometry" />
        </mxCell>
        <mxCell id="9iOiu2AejandBRwTWpK1-74" value="&lt;u&gt;id&lt;/u&gt;" style="ellipse;whiteSpace=wrap;html=1;" vertex="1" parent="1">
          <mxGeometry x="-590" y="870" width="70" height="40" as="geometry" />
        </mxCell>
        <mxCell id="9iOiu2AejandBRwTWpK1-75" value="image" style="ellipse;whiteSpace=wrap;html=1;" vertex="1" parent="1">
          <mxGeometry x="-610" y="900" width="70" height="40" as="geometry" />
        </mxCell>
        <mxCell id="9iOiu2AejandBRwTWpK1-76" value="phone" style="ellipse;whiteSpace=wrap;html=1;" vertex="1" parent="1">
          <mxGeometry x="-620" y="925" width="70" height="40" as="geometry" />
        </mxCell>
        <mxCell id="9iOiu2AejandBRwTWpK1-77" value="address" style="ellipse;whiteSpace=wrap;html=1;" vertex="1" parent="1">
          <mxGeometry x="-600" y="960" width="70" height="40" as="geometry" />
        </mxCell>
        <mxCell id="9iOiu2AejandBRwTWpK1-79" value="time" style="ellipse;whiteSpace=wrap;html=1;" vertex="1" parent="1">
          <mxGeometry x="-620" y="1060" width="70" height="40" as="geometry" />
        </mxCell>
        <mxCell id="9iOiu2AejandBRwTWpK1-80" value="status" style="ellipse;whiteSpace=wrap;html=1;" vertex="1" parent="1">
          <mxGeometry x="-630" y="1035" width="70" height="40" as="geometry" />
        </mxCell>
        <mxCell id="9iOiu2AejandBRwTWpK1-81" value="fees" style="ellipse;whiteSpace=wrap;html=1;" vertex="1" parent="1">
          <mxGeometry x="-620" y="1010" width="70" height="40" as="geometry" />
        </mxCell>
        <mxCell id="9iOiu2AejandBRwTWpK1-87" style="edgeStyle=none;rounded=0;orthogonalLoop=1;jettySize=auto;html=1;exitX=0;exitY=0.5;exitDx=0;exitDy=0;entryX=0.957;entryY=0.35;entryDx=0;entryDy=0;entryPerimeter=0;" edge="1" parent="1" source="9iOiu2AejandBRwTWpK1-5" target="9iOiu2AejandBRwTWpK1-67">
          <mxGeometry relative="1" as="geometry" />
        </mxCell>
        <mxCell id="9iOiu2AejandBRwTWpK1-92" style="edgeStyle=none;rounded=0;orthogonalLoop=1;jettySize=auto;html=1;exitX=0;exitY=0.5;exitDx=0;exitDy=0;entryX=0.957;entryY=0.25;entryDx=0;entryDy=0;entryPerimeter=0;" edge="1" parent="1" source="9iOiu2AejandBRwTWpK1-7" target="9iOiu2AejandBRwTWpK1-77">
          <mxGeometry relative="1" as="geometry" />
        </mxCell>
        <mxCell id="9iOiu2AejandBRwTWpK1-94" style="edgeStyle=none;rounded=0;orthogonalLoop=1;jettySize=auto;html=1;exitX=0;exitY=0.5;exitDx=0;exitDy=0;entryX=0.971;entryY=0.856;entryDx=0;entryDy=0;entryPerimeter=0;" edge="1" parent="1" source="9iOiu2AejandBRwTWpK1-8" target="9iOiu2AejandBRwTWpK1-69">
          <mxGeometry relative="1" as="geometry" />
        </mxCell>
        <mxCell id="9iOiu2AejandBRwTWpK1-97" style="edgeStyle=none;rounded=0;orthogonalLoop=1;jettySize=auto;html=1;exitX=0;exitY=0.5;exitDx=0;exitDy=0;entryX=1.029;entryY=0.256;entryDx=0;entryDy=0;entryPerimeter=0;" edge="1" parent="1" source="9iOiu2AejandBRwTWpK1-8" target="9iOiu2AejandBRwTWpK1-72">
          <mxGeometry relative="1" as="geometry" />
        </mxCell>
        <mxCell id="9iOiu2AejandBRwTWpK1-99" value="&lt;u&gt;id&lt;/u&gt;" style="ellipse;whiteSpace=wrap;html=1;" vertex="1" parent="1">
          <mxGeometry x="-465" y="520" width="70" height="40" as="geometry" />
        </mxCell>
        <mxCell id="9iOiu2AejandBRwTWpK1-100" value="comment" style="ellipse;whiteSpace=wrap;html=1;" vertex="1" parent="1">
          <mxGeometry x="-520" y="510" width="70" height="40" as="geometry" />
        </mxCell>
        <mxCell id="9iOiu2AejandBRwTWpK1-101" value="rating" style="ellipse;whiteSpace=wrap;html=1;" vertex="1" parent="1">
          <mxGeometry x="-560" y="540" width="70" height="40" as="geometry" />
        </mxCell>
      </root>
    </mxGraphModel>
  </diagram>
</mxfile>
